<svg width="244" height="332" viewBox="0 0 244 332" fill="none" xmlns="http://www.w3.org/2000/svg">
<g clip-path="url(#clip0_700_119022)">
<path d="M233.998 288C233.998 285.791 232.207 284 229.998 284V298C232.207 298 233.998 296.209 233.998 294V288Z" fill="#0C1214"/>
<path d="M60.9984 314C60.9984 313.172 60.3268 312.5 59.4984 312.5C58.67 312.5 57.9984 313.172 57.9984 314V320C57.9984 320.828 58.67 321.5 59.4984 321.5C60.3268 321.5 60.9984 320.828 60.9984 320V314Z" fill="#0C1214"/>
<path d="M52.4984 312.5C53.3268 312.5 53.9984 313.172 53.9984 314V320C53.9984 320.828 53.3268 321.5 52.4984 321.5C51.67 321.5 50.9984 320.828 50.9984 320V314C50.9984 313.172 51.67 312.5 52.4984 312.5Z" fill="#0C1214"/>
<path fill-rule="evenodd" clip-rule="evenodd" d="M-0.00195312 58L-0.00198364 272V317.5L0.0101013 317.494C0.267807 323.063 4.86517 326.977 10.4987 326.977H24.4978L18.9987 326.977H164.579C168.125 326.977 171.489 325.932 173.769 323.217L177.492 318.783C179.772 316.068 183.136 313.5 186.682 313.5H211.138C214.597 313.5 217.888 315.993 220.167 318.595L225.759 324.982C227.729 327.232 230.574 328 233.565 328H239.975C239.983 328 239.99 327.995 239.993 327.989C239.995 327.984 239.996 327.979 239.994 327.974L239.998 327.977L239.998 312L233 306.402C231.103 304.884 229.998 302.585 229.998 300.155V283.845C229.998 281.415 231.103 279.116 233 277.598L239.998 272L239.998 58V8C239.998 3.58172 236.416 0 231.998 0H7.99805C3.57977 0 -0.00195312 3.58172 -0.00195312 8V16L6.99561 21.598C8.89333 23.1162 9.99805 25.4147 9.99805 27.845V44.155C9.99805 46.5853 8.89333 48.8838 6.99561 50.402L-0.00195312 56V58ZM10.6269 315.553C11.5648 316.498 11.5662 318.022 10.6301 318.969C9.10529 320.511 6.47736 319.432 6.47736 317.263C6.47736 315.096 9.10068 314.015 10.6269 315.553ZM165.998 314C165.998 313.172 165.327 312.5 164.498 312.5C163.67 312.5 162.998 313.172 162.998 314V320C162.998 320.828 163.67 321.5 164.498 321.5C165.327 321.5 165.998 320.828 165.998 320V314ZM157.498 312.5C158.327 312.5 158.998 313.172 158.998 314V320C158.998 320.828 158.327 321.5 157.498 321.5C156.67 321.5 155.998 320.828 155.998 320V314C155.998 313.172 156.67 312.5 157.498 312.5ZM151.998 314C151.998 313.172 151.327 312.5 150.498 312.5C149.67 312.5 148.998 313.172 148.998 314V320C148.998 320.828 149.67 321.5 150.498 321.5C151.327 321.5 151.998 320.828 151.998 320V314ZM143.498 312.5C144.327 312.5 144.998 313.172 144.998 314V320C144.998 320.828 144.327 321.5 143.498 321.5C142.67 321.5 141.998 320.828 141.998 320V314C141.998 313.172 142.67 312.5 143.498 312.5ZM137.998 314C137.998 313.172 137.327 312.5 136.498 312.5C135.67 312.5 134.998 313.172 134.998 314V320C134.998 320.828 135.67 321.5 136.498 321.5C137.327 321.5 137.998 320.828 137.998 320V314ZM129.498 312.5C130.327 312.5 130.998 313.172 130.998 314V320C130.998 320.828 130.327 321.5 129.498 321.5C128.67 321.5 127.998 320.828 127.998 320V314C127.998 313.172 128.67 312.5 129.498 312.5ZM123.998 314C123.998 313.172 123.327 312.5 122.498 312.5C121.67 312.5 120.998 313.172 120.998 314V320C120.998 320.828 121.67 321.5 122.498 321.5C123.327 321.5 123.998 320.828 123.998 320V314ZM115.498 312.5C116.327 312.5 116.998 313.172 116.998 314V320C116.998 320.828 116.327 321.5 115.498 321.5C114.67 321.5 113.998 320.828 113.998 320V314C113.998 313.172 114.67 312.5 115.498 312.5ZM109.998 314C109.998 313.172 109.327 312.5 108.498 312.5C107.67 312.5 106.998 313.172 106.998 314V320C106.998 320.828 107.67 321.5 108.498 321.5C109.327 321.5 109.998 320.828 109.998 320V314ZM101.498 312.5C102.327 312.5 102.998 313.172 102.998 314V320C102.998 320.828 102.327 321.5 101.498 321.5C100.67 321.5 99.9984 320.828 99.9984 320V314C99.9984 313.172 100.67 312.5 101.498 312.5ZM95.9984 314C95.9984 313.172 95.3268 312.5 94.4984 312.5C93.67 312.5 92.9984 313.172 92.9984 314V320C92.9984 320.828 93.67 321.5 94.4984 321.5C95.3268 321.5 95.9984 320.828 95.9984 320V314ZM87.4984 312.5C88.3268 312.5 88.9984 313.172 88.9984 314V320C88.9984 320.828 88.3268 321.5 87.4984 321.5C86.67 321.5 85.9984 320.828 85.9984 320V314C85.9984 313.172 86.67 312.5 87.4984 312.5ZM81.9984 314C81.9984 313.172 81.3268 312.5 80.4984 312.5C79.67 312.5 78.9984 313.172 78.9984 314V320C78.9984 320.828 79.67 321.5 80.4984 321.5C81.3268 321.5 81.9984 320.828 81.9984 320V314ZM73.4984 312.5C74.3268 312.5 74.9984 313.172 74.9984 314V320C74.9984 320.828 74.3268 321.5 73.4984 321.5C72.67 321.5 71.9984 320.828 71.9984 320V314C71.9984 313.172 72.67 312.5 73.4984 312.5ZM67.9984 314C67.9984 313.172 67.3268 312.5 66.4984 312.5C65.67 312.5 64.9984 313.172 64.9984 314V320C64.9984 320.828 65.67 321.5 66.4984 321.5C67.3268 321.5 67.9984 320.828 67.9984 320V314ZM59.4984 312.5C60.3268 312.5 60.9984 313.172 60.9984 314V320C60.9984 320.828 60.3268 321.5 59.4984 321.5C58.67 321.5 57.9984 320.828 57.9984 320V314C57.9984 313.172 58.67 312.5 59.4984 312.5ZM53.9984 314C53.9984 313.172 53.3268 312.5 52.4984 312.5C51.67 312.5 50.9984 313.172 50.9984 314V320C50.9984 320.828 51.67 321.5 52.4984 321.5C53.3268 321.5 53.9984 320.828 53.9984 320V314ZM45.4984 312.5C46.3268 312.5 46.9984 313.172 46.9984 314V320C46.9984 320.828 46.3268 321.5 45.4984 321.5C44.67 321.5 43.9984 320.828 43.9984 320V314C43.9984 313.172 44.67 312.5 45.4984 312.5ZM39.9984 314C39.9984 313.172 39.3268 312.5 38.4984 312.5C37.67 312.5 36.9984 313.172 36.9984 314V320C36.9984 320.828 37.67 321.5 38.4984 321.5C39.3268 321.5 39.9984 320.828 39.9984 320V314ZM31.4984 312.5C32.3268 312.5 32.9984 313.172 32.9984 314V320C32.9984 320.828 32.3268 321.5 31.4984 321.5C30.67 321.5 29.9984 320.828 29.9984 320V314C29.9984 313.172 30.67 312.5 31.4984 312.5Z" fill="#0C1214"/>
<path d="M66.4984 312.5C67.3268 312.5 67.9984 313.172 67.9984 314V320C67.9984 320.828 67.3268 321.5 66.4984 321.5C65.67 321.5 64.9984 320.828 64.9984 320V314C64.9984 313.172 65.67 312.5 66.4984 312.5Z" fill="#0C1214"/>
<path d="M32.9984 314C32.9984 313.172 32.3268 312.5 31.4984 312.5C30.67 312.5 29.9984 313.172 29.9984 314V320C29.9984 320.828 30.67 321.5 31.4984 321.5C32.3268 321.5 32.9984 320.828 32.9984 320V314Z" fill="#0C1214"/>
<path d="M38.4984 312.5C39.3268 312.5 39.9984 313.172 39.9984 314V320C39.9984 320.828 39.3268 321.5 38.4984 321.5C37.67 321.5 36.9984 320.828 36.9984 320V314C36.9984 313.172 37.67 312.5 38.4984 312.5Z" fill="#0C1214"/>
<path d="M46.9984 314C46.9984 313.172 46.3268 312.5 45.4984 312.5C44.67 312.5 43.9984 313.172 43.9984 314V320C43.9984 320.828 44.67 321.5 45.4984 321.5C46.3268 321.5 46.9984 320.828 46.9984 320V314Z" fill="#0C1214"/>
<path d="M150.498 312.5C151.327 312.5 151.998 313.172 151.998 314V320C151.998 320.828 151.327 321.5 150.498 321.5C149.67 321.5 148.998 320.828 148.998 320V314C148.998 313.172 149.67 312.5 150.498 312.5Z" fill="#0C1214"/>
<path fill-rule="evenodd" clip-rule="evenodd" d="M10.6269 315.553C11.5648 316.498 11.5662 318.022 10.6301 318.969C9.10529 320.511 6.47736 319.432 6.47736 317.263C6.47736 315.096 9.10068 314.015 10.6269 315.553ZM157.498 312.5C158.327 312.5 158.998 313.172 158.998 314V320C158.998 320.828 158.327 321.5 157.498 321.5C156.67 321.5 155.998 320.828 155.998 320V314C155.998 313.172 156.67 312.5 157.498 312.5ZM143.498 312.5C144.327 312.5 144.998 313.172 144.998 314V320C144.998 320.828 144.327 321.5 143.498 321.5C142.67 321.5 141.998 320.828 141.998 320V314C141.998 313.172 142.67 312.5 143.498 312.5ZM137.998 314C137.998 313.172 137.327 312.5 136.498 312.5C135.67 312.5 134.998 313.172 134.998 314V320C134.998 320.828 135.67 321.5 136.498 321.5C137.327 321.5 137.998 320.828 137.998 320V314ZM129.498 312.5C130.327 312.5 130.998 313.172 130.998 314V320C130.998 320.828 130.327 321.5 129.498 321.5C128.67 321.5 127.998 320.828 127.998 320V314C127.998 313.172 128.67 312.5 129.498 312.5ZM123.998 314C123.998 313.172 123.327 312.5 122.498 312.5C121.67 312.5 120.998 313.172 120.998 314V320C120.998 320.828 121.67 321.5 122.498 321.5C123.327 321.5 123.998 320.828 123.998 320V314ZM115.498 312.5C116.327 312.5 116.998 313.172 116.998 314V320C116.998 320.828 116.327 321.5 115.498 321.5C114.67 321.5 113.998 320.828 113.998 320V314C113.998 313.172 114.67 312.5 115.498 312.5ZM109.998 314C109.998 313.172 109.327 312.5 108.498 312.5C107.67 312.5 106.998 313.172 106.998 314V320C106.998 320.828 107.67 321.5 108.498 321.5C109.327 321.5 109.998 320.828 109.998 320V314ZM101.498 312.5C102.327 312.5 102.998 313.172 102.998 314V320C102.998 320.828 102.327 321.5 101.498 321.5C100.67 321.5 99.9984 320.828 99.9984 320V314C99.9984 313.172 100.67 312.5 101.498 312.5ZM95.9984 314C95.9984 313.172 95.3268 312.5 94.4984 312.5C93.67 312.5 92.9984 313.172 92.9984 314V320C92.9984 320.828 93.67 321.5 94.4984 321.5C95.3268 321.5 95.9984 320.828 95.9984 320V314ZM87.4984 312.5C88.3268 312.5 88.9984 313.172 88.9984 314V320C88.9984 320.828 88.3268 321.5 87.4984 321.5C86.67 321.5 85.9984 320.828 85.9984 320V314C85.9984 313.172 86.67 312.5 87.4984 312.5ZM81.9984 314C81.9984 313.172 81.3268 312.5 80.4984 312.5C79.67 312.5 78.9984 313.172 78.9984 314V320C78.9984 320.828 79.67 321.5 80.4984 321.5C81.3268 321.5 81.9984 320.828 81.9984 320V314ZM73.4984 312.5C74.3268 312.5 74.9984 313.172 74.9984 314V320C74.9984 320.828 74.3268 321.5 73.4984 321.5C72.67 321.5 71.9984 320.828 71.9984 320V314C71.9984 313.172 72.67 312.5 73.4984 312.5ZM59.4984 312.5C60.3268 312.5 60.9984 313.172 60.9984 314V320C60.9984 320.828 60.3268 321.5 59.4984 321.5C58.67 321.5 57.9984 320.828 57.9984 320V314C57.9984 313.172 58.67 312.5 59.4984 312.5ZM53.9984 314C53.9984 313.172 53.3268 312.5 52.4984 312.5C51.67 312.5 50.9984 313.172 50.9984 314V320C50.9984 320.828 51.67 321.5 52.4984 321.5C53.3268 321.5 53.9984 320.828 53.9984 320V314Z" fill="#0C1214"/>
<path d="M164.498 312.5C165.327 312.5 165.998 313.172 165.998 314V320C165.998 320.828 165.327 321.5 164.498 321.5C163.67 321.5 162.998 320.828 162.998 320V314C162.998 313.172 163.67 312.5 164.498 312.5Z" fill="#0C1214"/>
<path d="M0.5 271.414V316.704L0.511551 316.954C0.759872 322.329 5.19371 327.5 10.5007 327.5L19.0007 327.5H164.581C167.9 327.5 171.137 325.072 173.388 322.388L177.111 317.947C179.455 315.151 182.948 313 186.684 313H211.14C214.786 313 218.204 315.073 220.545 317.751L226.137 324.148C228.011 326.291 230.718 327.5 233.567 327.5H239.5V311.715L232.69 306.259C230.674 304.643 229.5 302.198 229.5 299.612V298.956V298.566L229.879 298.471C230.842 298.23 231.704 297.892 232.35 297.029C233.006 296.152 233.5 294.652 233.5 291.945C233.5 289.909 233.493 288.134 233.03 286.858C232.805 286.239 232.483 285.772 232.027 285.455C231.569 285.137 230.927 284.934 230 284.934H229.5V284.434C229.5 283.15 229.79 281.617 230.322 280.208C230.852 278.806 231.644 277.469 232.69 276.631L239.5 271.174V58.0886V8.01223C239.5 3.86262 236.141 0.5 232 0.5H8C3.85858 0.5 0.5 3.86262 0.5 8.01223V15.7844L7.3102 21.2409C9.32648 22.8563 10.5 25.302 10.5 27.8875V44.2225C10.5 46.8081 9.32648 49.2537 7.3102 50.8692L0.5 56.3257V58.0886V271.414Z" stroke="#7CE0FE" stroke-opacity="0.12"/>
<path d="M209.498 107V199.374L193.498 222.295L193.498 312.5M193.498 237.5L220.498 200.5V154.696M180.558 222.632L169.498 211V174.379M180.498 241L168.498 253V282.319L180.498 294.5M197.499 107.126V199.5L180.499 222.295L180.499 314M189.168 210.558L180.498 198.241V107M171.498 107.175V131.5L180.498 144.5M193.499 311L207.499 296.638V264L215.499 256.7V238.5M61.1555 -169L61.1555 -76.6258L44.4983 -53.705L44.4983 71M45.2236 -38.0041L71.9981 -75.6212V-121.425M32.0576 -54.4893L19.998 -66.5489L19.998 -103.17M32.0576 -34.5744L20.4977 -22.8192L20.4977 6.49998L33.2193 19.1406M49.2066 -169L49.2066 -76.6258L33.4986 -53.8409L33.4986 70.864M41.1676 -65.4425L32.3165 -77.7587L32.3165 -169M23.2066 -168.845L23.2066 -144.52L32.0576 -132.204M44.4985 36L60.4985 20.5L60.4985 -12.1383L67.0747 -19.2509V-37.4509" stroke="#476E79" stroke-miterlimit="10"/>
</g>
<g clip-path="url(#clip1_700_119022)">
<path d="M235.998 290C235.998 287.791 234.207 286 231.998 286V300C234.207 300 235.998 298.209 235.998 296V290Z" fill="#0C1214"/>
<path d="M62.9984 316C62.9984 315.172 62.3268 314.5 61.4984 314.5C60.67 314.5 59.9984 315.172 59.9984 316V322C59.9984 322.828 60.67 323.5 61.4984 323.5C62.3268 323.5 62.9984 322.828 62.9984 322V316Z" fill="#0C1214"/>
<path d="M54.4984 314.5C55.3268 314.5 55.9984 315.172 55.9984 316V322C55.9984 322.828 55.3268 323.5 54.4984 323.5C53.67 323.5 52.9984 322.828 52.9984 322V316C52.9984 315.172 53.67 314.5 54.4984 314.5Z" fill="#0C1214"/>
<path fill-rule="evenodd" clip-rule="evenodd" d="M1.99805 60L1.99802 274V319.5L2.0101 319.494C2.26781 325.063 6.86517 328.977 12.4987 328.977H26.4978L20.9987 328.977H166.579C170.125 328.977 173.489 327.932 175.769 325.217L179.492 320.783C181.772 318.068 185.136 315.5 188.682 315.5H213.138C216.597 315.5 219.888 317.993 222.167 320.595L227.759 326.982C229.729 329.232 232.574 330 235.565 330H241.975C241.983 330 241.99 329.995 241.993 329.989C241.995 329.984 241.996 329.979 241.994 329.974L241.998 329.977L241.998 314L235 308.402C233.103 306.884 231.998 304.585 231.998 302.155V285.845C231.998 283.415 233.103 281.116 235 279.598L241.998 274L241.998 60V10C241.998 5.58172 238.416 2 233.998 2H9.99805C5.57977 2 1.99805 5.58172 1.99805 10V18L8.99561 23.598C10.8933 25.1162 11.998 27.4147 11.998 29.845V46.155C11.998 48.5853 10.8933 50.8838 8.99561 52.402L1.99805 58V60ZM12.6269 317.553C13.5648 318.498 13.5662 320.022 12.6301 320.969C11.1053 322.511 8.47736 321.432 8.47736 319.263C8.47736 317.096 11.1007 316.015 12.6269 317.553ZM167.998 316C167.998 315.172 167.327 314.5 166.498 314.5C165.67 314.5 164.998 315.172 164.998 316V322C164.998 322.828 165.67 323.5 166.498 323.5C167.327 323.5 167.998 322.828 167.998 322V316ZM159.498 314.5C160.327 314.5 160.998 315.172 160.998 316V322C160.998 322.828 160.327 323.5 159.498 323.5C158.67 323.5 157.998 322.828 157.998 322V316C157.998 315.172 158.67 314.5 159.498 314.5ZM153.998 316C153.998 315.172 153.327 314.5 152.498 314.5C151.67 314.5 150.998 315.172 150.998 316V322C150.998 322.828 151.67 323.5 152.498 323.5C153.327 323.5 153.998 322.828 153.998 322V316ZM145.498 314.5C146.327 314.5 146.998 315.172 146.998 316V322C146.998 322.828 146.327 323.5 145.498 323.5C144.67 323.5 143.998 322.828 143.998 322V316C143.998 315.172 144.67 314.5 145.498 314.5ZM139.998 316C139.998 315.172 139.327 314.5 138.498 314.5C137.67 314.5 136.998 315.172 136.998 316V322C136.998 322.828 137.67 323.5 138.498 323.5C139.327 323.5 139.998 322.828 139.998 322V316ZM131.498 314.5C132.327 314.5 132.998 315.172 132.998 316V322C132.998 322.828 132.327 323.5 131.498 323.5C130.67 323.5 129.998 322.828 129.998 322V316C129.998 315.172 130.67 314.5 131.498 314.5ZM125.998 316C125.998 315.172 125.327 314.5 124.498 314.5C123.67 314.5 122.998 315.172 122.998 316V322C122.998 322.828 123.67 323.5 124.498 323.5C125.327 323.5 125.998 322.828 125.998 322V316ZM117.498 314.5C118.327 314.5 118.998 315.172 118.998 316V322C118.998 322.828 118.327 323.5 117.498 323.5C116.67 323.5 115.998 322.828 115.998 322V316C115.998 315.172 116.67 314.5 117.498 314.5ZM111.998 316C111.998 315.172 111.327 314.5 110.498 314.5C109.67 314.5 108.998 315.172 108.998 316V322C108.998 322.828 109.67 323.5 110.498 323.5C111.327 323.5 111.998 322.828 111.998 322V316ZM103.498 314.5C104.327 314.5 104.998 315.172 104.998 316V322C104.998 322.828 104.327 323.5 103.498 323.5C102.67 323.5 101.998 322.828 101.998 322V316C101.998 315.172 102.67 314.5 103.498 314.5ZM97.9984 316C97.9984 315.172 97.3268 314.5 96.4984 314.5C95.67 314.5 94.9984 315.172 94.9984 316V322C94.9984 322.828 95.67 323.5 96.4984 323.5C97.3268 323.5 97.9984 322.828 97.9984 322V316ZM89.4984 314.5C90.3268 314.5 90.9984 315.172 90.9984 316V322C90.9984 322.828 90.3268 323.5 89.4984 323.5C88.67 323.5 87.9984 322.828 87.9984 322V316C87.9984 315.172 88.67 314.5 89.4984 314.5ZM83.9984 316C83.9984 315.172 83.3268 314.5 82.4984 314.5C81.67 314.5 80.9984 315.172 80.9984 316V322C80.9984 322.828 81.67 323.5 82.4984 323.5C83.3268 323.5 83.9984 322.828 83.9984 322V316ZM75.4984 314.5C76.3268 314.5 76.9984 315.172 76.9984 316V322C76.9984 322.828 76.3268 323.5 75.4984 323.5C74.67 323.5 73.9984 322.828 73.9984 322V316C73.9984 315.172 74.67 314.5 75.4984 314.5ZM69.9984 316C69.9984 315.172 69.3268 314.5 68.4984 314.5C67.67 314.5 66.9984 315.172 66.9984 316V322C66.9984 322.828 67.67 323.5 68.4984 323.5C69.3268 323.5 69.9984 322.828 69.9984 322V316ZM61.4984 314.5C62.3268 314.5 62.9984 315.172 62.9984 316V322C62.9984 322.828 62.3268 323.5 61.4984 323.5C60.67 323.5 59.9984 322.828 59.9984 322V316C59.9984 315.172 60.67 314.5 61.4984 314.5ZM55.9984 316C55.9984 315.172 55.3268 314.5 54.4984 314.5C53.67 314.5 52.9984 315.172 52.9984 316V322C52.9984 322.828 53.67 323.5 54.4984 323.5C55.3268 323.5 55.9984 322.828 55.9984 322V316ZM47.4984 314.5C48.3268 314.5 48.9984 315.172 48.9984 316V322C48.9984 322.828 48.3268 323.5 47.4984 323.5C46.67 323.5 45.9984 322.828 45.9984 322V316C45.9984 315.172 46.67 314.5 47.4984 314.5ZM41.9984 316C41.9984 315.172 41.3268 314.5 40.4984 314.5C39.67 314.5 38.9984 315.172 38.9984 316V322C38.9984 322.828 39.67 323.5 40.4984 323.5C41.3268 323.5 41.9984 322.828 41.9984 322V316ZM33.4984 314.5C34.3268 314.5 34.9984 315.172 34.9984 316V322C34.9984 322.828 34.3268 323.5 33.4984 323.5C32.67 323.5 31.9984 322.828 31.9984 322V316C31.9984 315.172 32.67 314.5 33.4984 314.5Z" fill="#0C1214"/>
<path d="M68.4984 314.5C69.3268 314.5 69.9984 315.172 69.9984 316V322C69.9984 322.828 69.3268 323.5 68.4984 323.5C67.67 323.5 66.9984 322.828 66.9984 322V316C66.9984 315.172 67.67 314.5 68.4984 314.5Z" fill="#0C1214"/>
<path d="M34.9984 316C34.9984 315.172 34.3268 314.5 33.4984 314.5C32.67 314.5 31.9984 315.172 31.9984 316V322C31.9984 322.828 32.67 323.5 33.4984 323.5C34.3268 323.5 34.9984 322.828 34.9984 322V316Z" fill="#0C1214"/>
<path d="M40.4984 314.5C41.3268 314.5 41.9984 315.172 41.9984 316V322C41.9984 322.828 41.3268 323.5 40.4984 323.5C39.67 323.5 38.9984 322.828 38.9984 322V316C38.9984 315.172 39.67 314.5 40.4984 314.5Z" fill="#0C1214"/>
<path d="M48.9984 316C48.9984 315.172 48.3268 314.5 47.4984 314.5C46.67 314.5 45.9984 315.172 45.9984 316V322C45.9984 322.828 46.67 323.5 47.4984 323.5C48.3268 323.5 48.9984 322.828 48.9984 322V316Z" fill="#0C1214"/>
<path d="M152.498 314.5C153.327 314.5 153.998 315.172 153.998 316V322C153.998 322.828 153.327 323.5 152.498 323.5C151.67 323.5 150.998 322.828 150.998 322V316C150.998 315.172 151.67 314.5 152.498 314.5Z" fill="#0C1214"/>
<path fill-rule="evenodd" clip-rule="evenodd" d="M12.6269 317.553C13.5648 318.498 13.5662 320.022 12.6301 320.969C11.1053 322.511 8.47736 321.432 8.47736 319.263C8.47736 317.096 11.1007 316.015 12.6269 317.553ZM159.498 314.5C160.327 314.5 160.998 315.172 160.998 316V322C160.998 322.828 160.327 323.5 159.498 323.5C158.67 323.5 157.998 322.828 157.998 322V316C157.998 315.172 158.67 314.5 159.498 314.5ZM145.498 314.5C146.327 314.5 146.998 315.172 146.998 316V322C146.998 322.828 146.327 323.5 145.498 323.5C144.67 323.5 143.998 322.828 143.998 322V316C143.998 315.172 144.67 314.5 145.498 314.5ZM139.998 316C139.998 315.172 139.327 314.5 138.498 314.5C137.67 314.5 136.998 315.172 136.998 316V322C136.998 322.828 137.67 323.5 138.498 323.5C139.327 323.5 139.998 322.828 139.998 322V316ZM131.498 314.5C132.327 314.5 132.998 315.172 132.998 316V322C132.998 322.828 132.327 323.5 131.498 323.5C130.67 323.5 129.998 322.828 129.998 322V316C129.998 315.172 130.67 314.5 131.498 314.5ZM125.998 316C125.998 315.172 125.327 314.5 124.498 314.5C123.67 314.5 122.998 315.172 122.998 316V322C122.998 322.828 123.67 323.5 124.498 323.5C125.327 323.5 125.998 322.828 125.998 322V316ZM117.498 314.5C118.327 314.5 118.998 315.172 118.998 316V322C118.998 322.828 118.327 323.5 117.498 323.5C116.67 323.5 115.998 322.828 115.998 322V316C115.998 315.172 116.67 314.5 117.498 314.5ZM111.998 316C111.998 315.172 111.327 314.5 110.498 314.5C109.67 314.5 108.998 315.172 108.998 316V322C108.998 322.828 109.67 323.5 110.498 323.5C111.327 323.5 111.998 322.828 111.998 322V316ZM103.498 314.5C104.327 314.5 104.998 315.172 104.998 316V322C104.998 322.828 104.327 323.5 103.498 323.5C102.67 323.5 101.998 322.828 101.998 322V316C101.998 315.172 102.67 314.5 103.498 314.5ZM97.9984 316C97.9984 315.172 97.3268 314.5 96.4984 314.5C95.67 314.5 94.9984 315.172 94.9984 316V322C94.9984 322.828 95.67 323.5 96.4984 323.5C97.3268 323.5 97.9984 322.828 97.9984 322V316ZM89.4984 314.5C90.3268 314.5 90.9984 315.172 90.9984 316V322C90.9984 322.828 90.3268 323.5 89.4984 323.5C88.67 323.5 87.9984 322.828 87.9984 322V316C87.9984 315.172 88.67 314.5 89.4984 314.5ZM83.9984 316C83.9984 315.172 83.3268 314.5 82.4984 314.5C81.67 314.5 80.9984 315.172 80.9984 316V322C80.9984 322.828 81.67 323.5 82.4984 323.5C83.3268 323.5 83.9984 322.828 83.9984 322V316ZM75.4984 314.5C76.3268 314.5 76.9984 315.172 76.9984 316V322C76.9984 322.828 76.3268 323.5 75.4984 323.5C74.67 323.5 73.9984 322.828 73.9984 322V316C73.9984 315.172 74.67 314.5 75.4984 314.5ZM61.4984 314.5C62.3268 314.5 62.9984 315.172 62.9984 316V322C62.9984 322.828 62.3268 323.5 61.4984 323.5C60.67 323.5 59.9984 322.828 59.9984 322V316C59.9984 315.172 60.67 314.5 61.4984 314.5ZM55.9984 316C55.9984 315.172 55.3268 314.5 54.4984 314.5C53.67 314.5 52.9984 315.172 52.9984 316V322C52.9984 322.828 53.67 323.5 54.4984 323.5C55.3268 323.5 55.9984 322.828 55.9984 322V316Z" fill="#0C1214"/>
<path d="M166.498 314.5C167.327 314.5 167.998 315.172 167.998 316V322C167.998 322.828 167.327 323.5 166.498 323.5C165.67 323.5 164.998 322.828 164.998 322V316C164.998 315.172 165.67 314.5 166.498 314.5Z" fill="#0C1214"/>
<path d="M2.5 273.414V318.704L2.51155 318.954C2.75987 324.329 7.19371 329.5 12.5007 329.5L21.0007 329.5H166.581C169.9 329.5 173.137 327.072 175.388 324.388L179.111 319.947C181.455 317.151 184.948 315 188.684 315H213.14C216.786 315 220.204 317.073 222.545 319.751L228.137 326.148C230.011 328.291 232.718 329.5 235.567 329.5H241.5V313.715L234.69 308.259C232.674 306.643 231.5 304.198 231.5 301.612V300.956V300.566L231.879 300.471C232.842 300.23 233.704 299.892 234.35 299.029C235.006 298.152 235.5 296.652 235.5 293.945C235.5 291.909 235.493 290.134 235.03 288.858C234.805 288.239 234.483 287.772 234.027 287.455C233.569 287.137 232.927 286.934 232 286.934H231.5V286.434C231.5 285.15 231.79 283.617 232.322 282.208C232.852 280.806 233.644 279.469 234.69 278.631L241.5 273.174V60.0886V10.0122C241.5 5.86262 238.141 2.5 234 2.5H10C5.85858 2.5 2.5 5.86262 2.5 10.0122V17.7844L9.3102 23.2409C11.3265 24.8563 12.5 27.302 12.5 29.8875V46.2225C12.5 48.8081 11.3265 51.2537 9.3102 52.8692L2.5 58.3257V60.0886V273.414Z" stroke="#7CE0FE" stroke-opacity="0.12"/>
<path d="M211.498 109V201.374L195.498 224.295L195.498 314.5M195.498 239.5L222.498 202.5V156.696M182.558 224.632L171.498 213V176.379M182.498 243L170.498 255V284.319L182.498 296.5M199.499 109.126V201.5L182.499 224.295L182.499 316M191.168 212.558L182.498 200.241V109M173.498 109.175V133.5L182.498 146.5M195.499 313L209.499 298.638V266L217.499 258.7V240.5M63.1555 -167L63.1555 -74.6258L46.4983 -51.705L46.4983 73M47.2236 -36.0041L73.9981 -73.6212V-119.425M34.0576 -52.4893L21.998 -64.5489L21.998 -101.17M34.0576 -32.5744L22.4977 -20.8192L22.4977 8.49998L35.2193 21.1406M51.2066 -167L51.2066 -74.6258L35.4986 -51.8409L35.4986 72.864M43.1676 -63.4425L34.3165 -75.7587L34.3165 -167M25.2066 -166.845L25.2066 -142.52L34.0576 -130.204M46.4985 38L62.4985 22.5L62.4985 -10.1383L69.0747 -17.2509V-35.4509" stroke="#476E79" stroke-miterlimit="10"/>
</g>
<g clip-path="url(#clip2_700_119022)">
<path d="M237.998 292C237.998 289.791 236.207 288 233.998 288V302C236.207 302 237.998 300.209 237.998 298V292Z" fill="#0C1214"/>
<path d="M64.9984 318C64.9984 317.172 64.3268 316.5 63.4984 316.5C62.67 316.5 61.9984 317.172 61.9984 318V324C61.9984 324.828 62.67 325.5 63.4984 325.5C64.3268 325.5 64.9984 324.828 64.9984 324V318Z" fill="#0C1214"/>
<path d="M56.4984 316.5C57.3268 316.5 57.9984 317.172 57.9984 318V324C57.9984 324.828 57.3268 325.5 56.4984 325.5C55.67 325.5 54.9984 324.828 54.9984 324V318C54.9984 317.172 55.67 316.5 56.4984 316.5Z" fill="#0C1214"/>
<path fill-rule="evenodd" clip-rule="evenodd" d="M3.99805 62L3.99802 276V321.5L4.0101 321.494C4.26781 327.063 8.86517 330.977 14.4987 330.977H28.4978L22.9987 330.977H168.579C172.125 330.977 175.489 329.932 177.769 327.217L181.492 322.783C183.772 320.068 187.136 317.5 190.682 317.5H215.138C218.597 317.5 221.888 319.993 224.167 322.595L229.759 328.982C231.729 331.232 234.574 332 237.565 332H243.975C243.983 332 243.99 331.995 243.993 331.989C243.995 331.984 243.996 331.979 243.994 331.974L243.998 331.977L243.998 316L237 310.402C235.103 308.884 233.998 306.585 233.998 304.155V287.845C233.998 285.415 235.103 283.116 237 281.598L243.998 276L243.998 62V12C243.998 7.58172 240.416 4 235.998 4H11.998C7.57977 4 3.99805 7.58172 3.99805 12V20L10.9956 25.598C12.8933 27.1162 13.998 29.4147 13.998 31.845V48.155C13.998 50.5853 12.8933 52.8838 10.9956 54.402L3.99805 60V62ZM14.6269 319.553C15.5648 320.498 15.5662 322.022 14.6301 322.969C13.1053 324.511 10.4774 323.432 10.4774 321.263C10.4774 319.096 13.1007 318.015 14.6269 319.553ZM169.998 318C169.998 317.172 169.327 316.5 168.498 316.5C167.67 316.5 166.998 317.172 166.998 318V324C166.998 324.828 167.67 325.5 168.498 325.5C169.327 325.5 169.998 324.828 169.998 324V318ZM161.498 316.5C162.327 316.5 162.998 317.172 162.998 318V324C162.998 324.828 162.327 325.5 161.498 325.5C160.67 325.5 159.998 324.828 159.998 324V318C159.998 317.172 160.67 316.5 161.498 316.5ZM155.998 318C155.998 317.172 155.327 316.5 154.498 316.5C153.67 316.5 152.998 317.172 152.998 318V324C152.998 324.828 153.67 325.5 154.498 325.5C155.327 325.5 155.998 324.828 155.998 324V318ZM147.498 316.5C148.327 316.5 148.998 317.172 148.998 318V324C148.998 324.828 148.327 325.5 147.498 325.5C146.67 325.5 145.998 324.828 145.998 324V318C145.998 317.172 146.67 316.5 147.498 316.5ZM141.998 318C141.998 317.172 141.327 316.5 140.498 316.5C139.67 316.5 138.998 317.172 138.998 318V324C138.998 324.828 139.67 325.5 140.498 325.5C141.327 325.5 141.998 324.828 141.998 324V318ZM133.498 316.5C134.327 316.5 134.998 317.172 134.998 318V324C134.998 324.828 134.327 325.5 133.498 325.5C132.67 325.5 131.998 324.828 131.998 324V318C131.998 317.172 132.67 316.5 133.498 316.5ZM127.998 318C127.998 317.172 127.327 316.5 126.498 316.5C125.67 316.5 124.998 317.172 124.998 318V324C124.998 324.828 125.67 325.5 126.498 325.5C127.327 325.5 127.998 324.828 127.998 324V318ZM119.498 316.5C120.327 316.5 120.998 317.172 120.998 318V324C120.998 324.828 120.327 325.5 119.498 325.5C118.67 325.5 117.998 324.828 117.998 324V318C117.998 317.172 118.67 316.5 119.498 316.5ZM113.998 318C113.998 317.172 113.327 316.5 112.498 316.5C111.67 316.5 110.998 317.172 110.998 318V324C110.998 324.828 111.67 325.5 112.498 325.5C113.327 325.5 113.998 324.828 113.998 324V318ZM105.498 316.5C106.327 316.5 106.998 317.172 106.998 318V324C106.998 324.828 106.327 325.5 105.498 325.5C104.67 325.5 103.998 324.828 103.998 324V318C103.998 317.172 104.67 316.5 105.498 316.5ZM99.9984 318C99.9984 317.172 99.3268 316.5 98.4984 316.5C97.67 316.5 96.9984 317.172 96.9984 318V324C96.9984 324.828 97.67 325.5 98.4984 325.5C99.3268 325.5 99.9984 324.828 99.9984 324V318ZM91.4984 316.5C92.3268 316.5 92.9984 317.172 92.9984 318V324C92.9984 324.828 92.3268 325.5 91.4984 325.5C90.67 325.5 89.9984 324.828 89.9984 324V318C89.9984 317.172 90.67 316.5 91.4984 316.5ZM85.9984 318C85.9984 317.172 85.3268 316.5 84.4984 316.5C83.67 316.5 82.9984 317.172 82.9984 318V324C82.9984 324.828 83.67 325.5 84.4984 325.5C85.3268 325.5 85.9984 324.828 85.9984 324V318ZM77.4984 316.5C78.3268 316.5 78.9984 317.172 78.9984 318V324C78.9984 324.828 78.3268 325.5 77.4984 325.5C76.67 325.5 75.9984 324.828 75.9984 324V318C75.9984 317.172 76.67 316.5 77.4984 316.5ZM71.9984 318C71.9984 317.172 71.3268 316.5 70.4984 316.5C69.67 316.5 68.9984 317.172 68.9984 318V324C68.9984 324.828 69.67 325.5 70.4984 325.5C71.3268 325.5 71.9984 324.828 71.9984 324V318ZM63.4984 316.5C64.3268 316.5 64.9984 317.172 64.9984 318V324C64.9984 324.828 64.3268 325.5 63.4984 325.5C62.67 325.5 61.9984 324.828 61.9984 324V318C61.9984 317.172 62.67 316.5 63.4984 316.5ZM57.9984 318C57.9984 317.172 57.3268 316.5 56.4984 316.5C55.67 316.5 54.9984 317.172 54.9984 318V324C54.9984 324.828 55.67 325.5 56.4984 325.5C57.3268 325.5 57.9984 324.828 57.9984 324V318ZM49.4984 316.5C50.3268 316.5 50.9984 317.172 50.9984 318V324C50.9984 324.828 50.3268 325.5 49.4984 325.5C48.67 325.5 47.9984 324.828 47.9984 324V318C47.9984 317.172 48.67 316.5 49.4984 316.5ZM43.9984 318C43.9984 317.172 43.3268 316.5 42.4984 316.5C41.67 316.5 40.9984 317.172 40.9984 318V324C40.9984 324.828 41.67 325.5 42.4984 325.5C43.3268 325.5 43.9984 324.828 43.9984 324V318ZM35.4984 316.5C36.3268 316.5 36.9984 317.172 36.9984 318V324C36.9984 324.828 36.3268 325.5 35.4984 325.5C34.67 325.5 33.9984 324.828 33.9984 324V318C33.9984 317.172 34.67 316.5 35.4984 316.5Z" fill="#0C1214"/>
<path d="M70.4984 316.5C71.3268 316.5 71.9984 317.172 71.9984 318V324C71.9984 324.828 71.3268 325.5 70.4984 325.5C69.67 325.5 68.9984 324.828 68.9984 324V318C68.9984 317.172 69.67 316.5 70.4984 316.5Z" fill="#0C1214"/>
<path d="M36.9984 318C36.9984 317.172 36.3268 316.5 35.4984 316.5C34.67 316.5 33.9984 317.172 33.9984 318V324C33.9984 324.828 34.67 325.5 35.4984 325.5C36.3268 325.5 36.9984 324.828 36.9984 324V318Z" fill="#0C1214"/>
<path d="M42.4984 316.5C43.3268 316.5 43.9984 317.172 43.9984 318V324C43.9984 324.828 43.3268 325.5 42.4984 325.5C41.67 325.5 40.9984 324.828 40.9984 324V318C40.9984 317.172 41.67 316.5 42.4984 316.5Z" fill="#0C1214"/>
<path d="M50.9984 318C50.9984 317.172 50.3268 316.5 49.4984 316.5C48.67 316.5 47.9984 317.172 47.9984 318V324C47.9984 324.828 48.67 325.5 49.4984 325.5C50.3268 325.5 50.9984 324.828 50.9984 324V318Z" fill="#0C1214"/>
<path d="M154.498 316.5C155.327 316.5 155.998 317.172 155.998 318V324C155.998 324.828 155.327 325.5 154.498 325.5C153.67 325.5 152.998 324.828 152.998 324V318C152.998 317.172 153.67 316.5 154.498 316.5Z" fill="#0C1214"/>
<path fill-rule="evenodd" clip-rule="evenodd" d="M14.6269 319.553C15.5648 320.498 15.5662 322.022 14.6301 322.969C13.1053 324.511 10.4774 323.432 10.4774 321.263C10.4774 319.096 13.1007 318.015 14.6269 319.553ZM161.498 316.5C162.327 316.5 162.998 317.172 162.998 318V324C162.998 324.828 162.327 325.5 161.498 325.5C160.67 325.5 159.998 324.828 159.998 324V318C159.998 317.172 160.67 316.5 161.498 316.5ZM147.498 316.5C148.327 316.5 148.998 317.172 148.998 318V324C148.998 324.828 148.327 325.5 147.498 325.5C146.67 325.5 145.998 324.828 145.998 324V318C145.998 317.172 146.67 316.5 147.498 316.5ZM141.998 318C141.998 317.172 141.327 316.5 140.498 316.5C139.67 316.5 138.998 317.172 138.998 318V324C138.998 324.828 139.67 325.5 140.498 325.5C141.327 325.5 141.998 324.828 141.998 324V318ZM133.498 316.5C134.327 316.5 134.998 317.172 134.998 318V324C134.998 324.828 134.327 325.5 133.498 325.5C132.67 325.5 131.998 324.828 131.998 324V318C131.998 317.172 132.67 316.5 133.498 316.5ZM127.998 318C127.998 317.172 127.327 316.5 126.498 316.5C125.67 316.5 124.998 317.172 124.998 318V324C124.998 324.828 125.67 325.5 126.498 325.5C127.327 325.5 127.998 324.828 127.998 324V318ZM119.498 316.5C120.327 316.5 120.998 317.172 120.998 318V324C120.998 324.828 120.327 325.5 119.498 325.5C118.67 325.5 117.998 324.828 117.998 324V318C117.998 317.172 118.67 316.5 119.498 316.5ZM113.998 318C113.998 317.172 113.327 316.5 112.498 316.5C111.67 316.5 110.998 317.172 110.998 318V324C110.998 324.828 111.67 325.5 112.498 325.5C113.327 325.5 113.998 324.828 113.998 324V318ZM105.498 316.5C106.327 316.5 106.998 317.172 106.998 318V324C106.998 324.828 106.327 325.5 105.498 325.5C104.67 325.5 103.998 324.828 103.998 324V318C103.998 317.172 104.67 316.5 105.498 316.5ZM99.9984 318C99.9984 317.172 99.3268 316.5 98.4984 316.5C97.67 316.5 96.9984 317.172 96.9984 318V324C96.9984 324.828 97.67 325.5 98.4984 325.5C99.3268 325.5 99.9984 324.828 99.9984 324V318ZM91.4984 316.5C92.3268 316.5 92.9984 317.172 92.9984 318V324C92.9984 324.828 92.3268 325.5 91.4984 325.5C90.67 325.5 89.9984 324.828 89.9984 324V318C89.9984 317.172 90.67 316.5 91.4984 316.5ZM85.9984 318C85.9984 317.172 85.3268 316.5 84.4984 316.5C83.67 316.5 82.9984 317.172 82.9984 318V324C82.9984 324.828 83.67 325.5 84.4984 325.5C85.3268 325.5 85.9984 324.828 85.9984 324V318ZM77.4984 316.5C78.3268 316.5 78.9984 317.172 78.9984 318V324C78.9984 324.828 78.3268 325.5 77.4984 325.5C76.67 325.5 75.9984 324.828 75.9984 324V318C75.9984 317.172 76.67 316.5 77.4984 316.5ZM63.4984 316.5C64.3268 316.5 64.9984 317.172 64.9984 318V324C64.9984 324.828 64.3268 325.5 63.4984 325.5C62.67 325.5 61.9984 324.828 61.9984 324V318C61.9984 317.172 62.67 316.5 63.4984 316.5ZM57.9984 318C57.9984 317.172 57.3268 316.5 56.4984 316.5C55.67 316.5 54.9984 317.172 54.9984 318V324C54.9984 324.828 55.67 325.5 56.4984 325.5C57.3268 325.5 57.9984 324.828 57.9984 324V318Z" fill="#0C1214"/>
<path d="M168.498 316.5C169.327 316.5 169.998 317.172 169.998 318V324C169.998 324.828 169.327 325.5 168.498 325.5C167.67 325.5 166.998 324.828 166.998 324V318C166.998 317.172 167.67 316.5 168.498 316.5Z" fill="#0C1214"/>
<path d="M4.5 275.414V320.704L4.51155 320.954C4.75987 326.329 9.19371 331.5 14.5007 331.5L23.0007 331.5H168.581C171.9 331.5 175.137 329.072 177.388 326.388L181.111 321.947C183.455 319.151 186.948 317 190.684 317H215.14C218.786 317 222.204 319.073 224.545 321.751L230.137 328.148C232.011 330.291 234.718 331.5 237.567 331.5H243.5V315.715L236.69 310.259C234.674 308.643 233.5 306.198 233.5 303.612V302.956V302.566L233.879 302.471C234.842 302.23 235.704 301.892 236.35 301.029C237.006 300.152 237.5 298.652 237.5 295.945C237.5 293.909 237.493 292.134 237.03 290.858C236.805 290.239 236.483 289.772 236.027 289.455C235.569 289.137 234.927 288.934 234 288.934H233.5V288.434C233.5 287.15 233.79 285.617 234.322 284.208C234.852 282.806 235.644 281.469 236.69 280.631L243.5 275.174V62.0886V12.0122C243.5 7.86262 240.141 4.5 236 4.5H12C7.85858 4.5 4.5 7.86262 4.5 12.0122V19.7844L11.3102 25.2409C13.3265 26.8563 14.5 29.302 14.5 31.8875V48.2225C14.5 50.8081 13.3265 53.2537 11.3102 54.8692L4.5 60.3257V62.0886V275.414Z" stroke="#7CE0FE" stroke-opacity="0.12"/>
<path d="M213.498 111V203.374L197.498 226.295L197.498 316.5M197.498 241.5L224.498 204.5V158.696M184.558 226.632L173.498 215V178.379M184.498 245L172.498 257V286.319L184.498 298.5M201.499 111.126V203.5L184.499 226.295L184.499 318M193.168 214.558L184.498 202.241V111M175.498 111.175V135.5L184.498 148.5M197.499 315L211.499 300.638V268L219.499 260.7V242.5M65.1555 -165L65.1555 -72.6258L48.4983 -49.705L48.4983 75M49.2236 -34.0041L75.9981 -71.6212V-117.425M36.0576 -50.4893L23.998 -62.5489L23.998 -99.1702M36.0576 -30.5744L24.4977 -18.8192L24.4977 10.5L37.2193 23.1406M53.2066 -165L53.2066 -72.6258L37.4986 -49.8409L37.4986 74.864M45.1676 -61.4425L36.3165 -73.7587L36.3165 -165M27.2066 -164.845L27.2066 -140.52L36.0576 -128.204M48.4985 40L64.4985 24.5L64.4985 -8.13834L71.0747 -15.2509V-33.4509" stroke="#476E79" stroke-miterlimit="10"/>
</g>
<defs>
<clipPath id="clip0_700_119022">
<rect width="240" height="328" fill="white"/>
</clipPath>
<clipPath id="clip1_700_119022">
<rect x="2" y="2" width="240" height="328" fill="white"/>
</clipPath>
<clipPath id="clip2_700_119022">
<rect x="4" y="4" width="240" height="328" fill="white"/>
</clipPath>
</defs>
</svg>
