<svg width="240" height="328" viewBox="0 0 240 328" fill="none" xmlns="http://www.w3.org/2000/svg">
<g clip-path="url(#clip0_493_57345)">
<path d="M240 58.0004H0V271H240V58.0004Z" fill="#1F1F24"/>
<path fill-rule="evenodd" clip-rule="evenodd" d="M0 271H240L233.002 276.598C231.105 278.117 230 280.415 230 282.845V299.155C230 301.586 231.105 303.884 233.002 305.402L240 311V327.5L239.996 327.497C239.998 327.502 239.997 327.507 239.995 327.512C239.992 327.518 239.985 327.523 239.977 327.523H233.567C230.576 327.523 227.731 326.232 225.761 323.982L220.169 317.595C217.89 314.993 214.599 313.5 211.14 313.5H186.684C183.138 313.5 179.774 315.068 177.494 317.783L173.771 322.217C171.491 324.932 168.127 326.5 164.581 326.5H19.0007L24.4997 326.5H10.5007C4.86713 326.5 0.269791 322.064 0.012085 316.494L0 316.5V271ZM10.6289 314.554C11.5668 315.499 11.5682 317.023 10.6321 317.969C9.10727 319.512 6.47934 318.432 6.47934 316.263C6.47934 314.097 9.10266 313.016 10.6289 314.554ZM166 313C166 312.172 165.329 311.5 164.5 311.5C163.672 311.5 163 312.172 163 313V319C163 319.829 163.672 320.5 164.5 320.5C165.329 320.5 166 319.829 166 319V313ZM157.5 311.5C158.329 311.5 159 312.172 159 313V319C159 319.829 158.329 320.5 157.5 320.5C156.672 320.5 156 319.829 156 319V313C156 312.172 156.672 311.5 157.5 311.5ZM152 313C152 312.172 151.329 311.5 150.5 311.5C149.672 311.5 149 312.172 149 313V319C149 319.829 149.672 320.5 150.5 320.5C151.329 320.5 152 319.829 152 319V313ZM143.5 311.5C144.329 311.5 145 312.172 145 313V319C145 319.829 144.329 320.5 143.5 320.5C142.672 320.5 142 319.829 142 319V313C142 312.172 142.672 311.5 143.5 311.5ZM138 313C138 312.172 137.329 311.5 136.5 311.5C135.672 311.5 135 312.172 135 313V319C135 319.829 135.672 320.5 136.5 320.5C137.329 320.5 138 319.829 138 319V313ZM129.5 311.5C130.329 311.5 131 312.172 131 313V319C131 319.829 130.329 320.5 129.5 320.5C128.672 320.5 128 319.829 128 319V313C128 312.172 128.672 311.5 129.5 311.5ZM124 313C124 312.172 123.329 311.5 122.5 311.5C121.672 311.5 121 312.172 121 313V319C121 319.829 121.672 320.5 122.5 320.5C123.329 320.5 124 319.829 124 319V313ZM115.5 311.5C116.329 311.5 117 312.172 117 313V319C117 319.829 116.329 320.5 115.5 320.5C114.672 320.5 114 319.829 114 319V313C114 312.172 114.672 311.5 115.5 311.5ZM110 313C110 312.172 109.329 311.5 108.5 311.5C107.672 311.5 107 312.172 107 313V319C107 319.829 107.672 320.5 108.5 320.5C109.329 320.5 110 319.829 110 319V313ZM101.5 311.5C102.329 311.5 103 312.172 103 313V319C103 319.829 102.329 320.5 101.5 320.5C100.672 320.5 100 319.829 100 319V313C100 312.172 100.672 311.5 101.5 311.5ZM96.0004 313C96.0004 312.172 95.3288 311.5 94.5004 311.5C93.672 311.5 93.0004 312.172 93.0004 313V319C93.0004 319.829 93.672 320.5 94.5004 320.5C95.3288 320.5 96.0004 319.829 96.0004 319V313ZM87.5004 311.5C88.3288 311.5 89.0004 312.172 89.0004 313V319C89.0004 319.829 88.3288 320.5 87.5004 320.5C86.672 320.5 86.0004 319.829 86.0004 319V313C86.0004 312.172 86.672 311.5 87.5004 311.5ZM82.0004 313C82.0004 312.172 81.3288 311.5 80.5004 311.5C79.672 311.5 79.0004 312.172 79.0004 313V319C79.0004 319.829 79.672 320.5 80.5004 320.5C81.3288 320.5 82.0004 319.829 82.0004 319V313ZM73.5004 311.5C74.3288 311.5 75.0004 312.172 75.0004 313V319C75.0004 319.829 74.3288 320.5 73.5004 320.5C72.672 320.5 72.0004 319.829 72.0004 319V313C72.0004 312.172 72.672 311.5 73.5004 311.5ZM68.0004 313C68.0004 312.172 67.3288 311.5 66.5004 311.5C65.672 311.5 65.0004 312.172 65.0004 313V319C65.0004 319.829 65.672 320.5 66.5004 320.5C67.3288 320.5 68.0004 319.829 68.0004 319V313ZM59.5004 311.5C60.3288 311.5 61.0004 312.172 61.0004 313V319C61.0004 319.829 60.3288 320.5 59.5004 320.5C58.672 320.5 58.0004 319.829 58.0004 319V313C58.0004 312.172 58.672 311.5 59.5004 311.5ZM54.0004 313C54.0004 312.172 53.3288 311.5 52.5004 311.5C51.672 311.5 51.0004 312.172 51.0004 313V319C51.0004 319.829 51.672 320.5 52.5004 320.5C53.3288 320.5 54.0004 319.829 54.0004 319V313ZM45.5004 311.5C46.3288 311.5 47.0004 312.172 47.0004 313V319C47.0004 319.829 46.3288 320.5 45.5004 320.5C44.672 320.5 44.0004 319.829 44.0004 319V313C44.0004 312.172 44.672 311.5 45.5004 311.5ZM40.0004 313C40.0004 312.172 39.3288 311.5 38.5004 311.5C37.672 311.5 37.0004 312.172 37.0004 313V319C37.0004 319.829 37.672 320.5 38.5004 320.5C39.3288 320.5 40.0004 319.829 40.0004 319V313ZM31.5004 311.5C32.3288 311.5 33.0004 312.172 33.0004 313V319C33.0004 319.829 32.3288 320.5 31.5004 320.5C30.672 320.5 30.0004 319.829 30.0004 319V313C30.0004 312.172 30.672 311.5 31.5004 311.5Z" fill="#1F1F24"/>
<path d="M184.68 318.63C185.209 317.976 184.744 317 183.903 317H182.936C182.634 317 182.349 317.136 182.159 317.37L176.333 324.551C175.802 325.204 176.267 326.181 177.109 326.181H178.084C178.385 326.181 178.671 326.045 178.861 325.81L184.68 318.63Z" fill="#1F1F24"/>
<path d="M191.67 318.63C192.2 317.976 191.735 317 190.893 317H189.926C189.625 317 189.34 317.136 189.15 317.37L183.323 324.551C182.793 325.204 183.258 326.181 184.1 326.181H185.074C185.376 326.181 185.661 326.045 185.851 325.81L191.67 318.63Z" fill="#1F1F24"/>
<path d="M198.661 318.63C199.19 317.976 198.725 317 197.884 317H196.907C196.606 317 196.32 317.136 196.13 317.371L190.311 324.551C189.782 325.205 190.247 326.181 191.088 326.181H192.065C192.366 326.181 192.652 326.045 192.842 325.81L198.661 318.63Z" fill="#1F1F24"/>
<path d="M205.629 318.63C206.16 317.977 205.694 317 204.853 317H203.898C203.596 317 203.311 317.136 203.121 317.371L197.302 324.551C196.772 325.205 197.237 326.181 198.079 326.181H199.026C199.327 326.181 199.613 326.045 199.802 325.811L205.629 318.63Z" fill="#1F1F24"/>
<path d="M212.63 318.63C213.16 317.977 212.695 317 211.853 317H210.878C210.577 317 210.291 317.136 210.101 317.37L204.275 324.551C203.744 325.204 204.209 326.181 205.051 326.181H206.026C206.328 326.181 206.613 326.045 206.803 325.811L212.63 318.63Z" fill="#1F1F24"/>
<path d="M213.082 326C212.244 326 211.777 325.03 212.302 324.375L215.877 319.913C216.261 319.433 216.982 319.41 217.396 319.863L221.471 324.326C222.057 324.968 221.602 326 220.733 326H213.082Z" fill="#1F1F24"/>
<path d="M234 288C234 285.791 232.209 284 230 284V298C232.209 298 234 296.21 234 294V288Z" fill="#1F1F24"/>
<path d="M232 0.000366211C236.418 0.000366211 240 3.58209 240 8.00037V58.0004H0V56.0004L6.99756 50.4023C8.89528 48.8841 10 46.5856 10 44.1554V27.8454C10 25.4151 8.89528 23.1166 6.99756 21.5984L0 16.0004V8.00037C0 3.58209 3.58173 0.000366211 8 0.000366211L232 0.000366211Z" fill="#1F1F24"/>
<path d="M0.5 271V316.221L0.511551 316.471C0.756973 321.775 5.13553 326 10.5007 326L19.0007 326H164.581C167.979 326 171.203 324.498 173.388 321.896L177.111 317.462C179.486 314.634 182.99 313 186.684 313H211.14C214.744 313 218.171 314.555 220.545 317.266L226.137 323.653C228.012 325.794 230.72 327.023 233.567 327.023H239.324L238.997 325.979L239.5 326.411V311.241L232.69 305.793C230.674 304.18 229.5 301.738 229.5 299.155V298.5V298.11L229.879 298.015C230.842 297.774 231.704 297.437 232.35 296.575C233.006 295.7 233.5 294.202 233.5 291.5C233.5 289.467 233.493 287.695 233.03 286.421C232.805 285.803 232.484 285.337 232.027 285.02C231.57 284.703 230.927 284.5 230 284.5H229.5V284C229.5 282.718 229.79 281.187 230.322 279.78C230.852 278.38 231.644 277.045 232.69 276.208L239.5 270.76V58.0004V8.00037C239.5 3.85823 236.142 0.500366 232 0.500366L8 0.500366C3.85786 0.500366 0.5 3.85823 0.5 8.00037V15.7601L7.30991 21.208C9.32623 22.821 10.5 25.2632 10.5 27.8454V44.1554C10.5 46.7375 9.32623 49.1797 7.30991 50.7928L0.5 56.2407V58.0004V271Z" stroke="white" stroke-opacity="0.03"/>
<path d="M123.005 225L123.005 222L126.005 222L126.005 225L123.005 225Z" fill="#121215"/>
<path d="M123.005 234.457L123.005 231.457L126.005 231.457L126.005 234.457L123.005 234.457Z" fill="#121215"/>
<path d="M123.005 239.189L123.005 236.189L126.005 236.189L126.005 239.189L123.005 239.189Z" fill="#121215"/>
<path d="M118.279 225L118.279 222L121.279 222L121.279 225L118.279 225Z" fill="#121215"/>
<path d="M118.279 239.189L118.279 236.189L121.279 236.189L121.279 239.189L118.279 239.189Z" fill="#121215"/>
<path d="M113.549 225L113.549 222L116.549 222L116.549 225L113.549 225Z" fill="#121215"/>
<path d="M114.001 234L114.001 231L117.001 231L117.001 234L114.001 234Z" fill="#7CE0FE"/>
<path d="M114.001 239L114.001 236L117.001 236L117.001 239L114.001 239Z" fill="#7CE0FE"/>
<path d="M113.549 243.918L113.549 240.918L116.549 240.918L116.549 243.918L113.549 243.918Z" fill="#121215"/>
<path d="M108.822 225L108.822 222L111.822 222L111.822 225L108.822 225Z" fill="#121215"/>
<path d="M108.822 229.729L108.822 226.729L111.822 226.729L111.822 229.729L108.822 229.729Z" fill="#121215"/>
<path d="M108.822 234.457L108.822 231.457L111.822 231.457L111.822 234.457L108.822 234.457Z" fill="#121215"/>
<path d="M108.822 239.189L108.822 236.189L111.822 236.189L111.822 239.189L108.822 239.189Z" fill="#121215"/>
<path d="M99.3652 229.729L99.3652 226.729L102.365 226.729L102.365 229.729L99.3652 229.729Z" fill="#121215"/>
<path d="M99.3652 234.457L99.3652 231.457L102.365 231.457L102.365 234.457L99.3652 234.457Z" fill="#121215"/>
<path d="M89.9092 225L89.9092 222L92.9092 222L92.9092 225L89.9092 225Z" fill="#121215"/>
<path d="M89.9092 229.729L89.9092 226.729L92.9092 226.729L92.9092 229.729L89.9092 229.729Z" fill="#121215"/>
<path d="M89.9092 234.457L89.9092 231.457L92.9092 231.457L92.9092 234.457L89.9092 234.457Z" fill="#121215"/>
<path d="M89.9092 239.189L89.9092 236.189L92.9092 236.189L92.9092 239.189L89.9092 239.189Z" fill="#121215"/>
<path d="M89.9092 243.918L89.9092 240.918L92.9092 240.918L92.9092 243.918L89.9092 243.918Z" fill="#121215"/>
<path d="M85.1826 225L85.1826 222L88.1826 222L88.1826 225L85.1826 225Z" fill="#121215"/>
<path d="M85.1826 229.729L85.1826 226.729L88.1826 226.729L88.1826 229.729L85.1826 229.729Z" fill="#121215"/>
<path d="M148.912 21.0002L148.912 18.0002L151.912 18.0002L151.912 21.0002L148.912 21.0002Z" fill="#121215"/>
<path d="M148.912 25.7329L148.912 22.7329L151.912 22.7329L151.912 25.7329L148.912 25.7329Z" fill="#121215"/>
<path d="M80.4561 225L80.4561 222L83.4561 222L83.4561 225L80.4561 225Z" fill="#121215"/>
<path d="M80.4561 229.729L80.4561 226.729L83.4561 226.729L83.4561 229.729L80.4561 229.729Z" fill="#121215"/>
<path d="M80.4561 234.457L80.4561 231.457L83.4561 231.457L83.4561 234.457L80.4561 234.457Z" fill="#121215"/>
<path d="M75.7266 225L75.7266 222L78.7266 222L78.7266 225L75.7266 225Z" fill="#121215"/>
<path d="M75.7266 234.457L75.7266 231.457L78.7266 231.457L78.7266 234.457L75.7266 234.457Z" fill="#121215"/>
<path d="M71 225L71 222L74 222L74 225L71 225Z" fill="#121215"/>
<path d="M71 234.457L71 231.457L74 231.457L74 234.457L71 234.457Z" fill="#121215"/>
<path d="M71 243.918L71 240.918L74 240.918L74 243.918L71 243.918Z" fill="#121215"/>
<path d="M126.086 169.789L126.086 166.789L129.086 166.789L129.086 169.789L126.086 169.789Z" fill="#121215"/>
<path d="M126.086 174.518L126.086 171.518L129.086 171.518L129.086 174.518L126.086 174.518Z" fill="#121215"/>
<path d="M126.084 179.25L126.084 176.25L129.084 176.25L129.084 179.25L126.084 179.25Z" fill="#121215"/>
<path d="M126.084 183.979L126.084 180.979L129.084 180.979L129.084 183.979L126.084 183.979Z" fill="#121215"/>
<path d="M121.359 174.518L121.359 171.518L124.359 171.518L124.359 174.518L121.359 174.518Z" fill="#121215"/>
<path d="M107.176 150.872L107.176 147.872L110.176 147.872L110.176 150.872L107.176 150.872Z" fill="#121215"/>
<path d="M107.176 160.329L107.176 157.329L110.176 157.329L110.176 160.329L107.176 160.329Z" fill="#121215"/>
<path d="M107.176 169.789L107.176 166.789L110.176 166.789L110.176 169.789L107.176 169.789Z" fill="#121215"/>
<path d="M107.176 174.518L107.176 171.518L110.176 171.518L110.176 174.518L107.176 174.518Z" fill="#121215"/>
<path d="M102.449 160.329L102.449 157.329L105.449 157.329L105.449 160.329L102.449 160.329Z" fill="#121215"/>
<path d="M102.449 183.978L102.449 180.978L105.449 180.978L105.449 183.978L102.449 183.978Z" fill="#121215"/>
<path d="M109.285 294.714L109.285 291.714L112.285 291.714L112.285 294.714L109.285 294.714Z" fill="#121215"/>
<path d="M109.285 304.175L109.285 301.175L112.285 301.175L112.285 304.175L109.285 304.175Z" fill="#121215"/>
<path d="M104.556 294.714L104.556 291.714L107.556 291.714L107.556 294.714L104.556 294.714Z" fill="#121215"/>
<path d="M99.8291 289.985L99.8291 286.985L102.829 286.985L102.829 289.985L99.8291 289.985Z" fill="#121215"/>
<path d="M99.8291 299.446L99.8291 296.446L102.829 296.446L102.829 299.446L99.8291 299.446Z" fill="#121215"/>
<path d="M95.0986 294.714L95.0986 291.714L98.0986 291.714L98.0986 294.714L95.0986 294.714Z" fill="#121215"/>
<path d="M90.3721 285.257L90.3721 282.257L93.3721 282.257L93.3721 285.257L90.3721 285.257Z" fill="#121215"/>
<path d="M85.6455 285.257L85.6455 282.257L88.6455 282.257L88.6455 285.257L85.6455 285.257Z" fill="#121215"/>
<path d="M85.6455 289.985L85.6455 286.985L88.6455 286.985L88.6455 289.985L85.6455 289.985Z" fill="#121215"/>
<path d="M85.6455 299.446L85.6455 296.446L88.6455 296.446L88.6455 299.446L85.6455 299.446Z" fill="#121215"/>
<path d="M80.9141 289.985L80.9141 286.985L83.9141 286.985L83.9141 289.985L80.9141 289.985Z" fill="#121215"/>
<path d="M80.9141 294.714L80.9141 291.714L83.9141 291.714L83.9141 294.714L80.9141 294.714Z" fill="#121215"/>
<path d="M76.1904 285.257L76.1904 282.257L79.1904 282.257L79.1904 285.257L76.1904 285.257Z" fill="#121215"/>
<path d="M76.1904 289.985L76.1904 286.985L79.1904 286.985L79.1904 289.985L76.1904 289.985Z" fill="#121215"/>
<path d="M76.001 295L76.001 292L79.001 292L79.001 295L76.001 295Z" fill="#7CE0FE"/>
<path d="M76.1904 299.446L76.1904 296.446L79.1904 296.446L79.1904 299.446L76.1904 299.446Z" fill="#121215"/>
<path d="M71.4609 285.257L71.4609 282.257L74.4609 282.257L74.4609 285.257L71.4609 285.257Z" fill="#121215"/>
<path d="M71.4609 289.985L71.4609 286.985L74.4609 286.985L74.4609 289.985L71.4609 289.985Z" fill="#121215"/>
<path d="M71.4609 304.174L71.4609 301.174L74.4609 301.174L74.4609 304.174L71.4609 304.174Z" fill="#121215"/>
<path d="M66.7314 289.985L66.7314 286.985L69.7314 286.985L69.7314 289.985L66.7314 289.985Z" fill="#121215"/>
<path d="M66.7314 294.714L66.7314 291.714L69.7314 291.714L69.7314 294.714L66.7314 294.714Z" fill="#121215"/>
<path d="M66.7314 299.446L66.7314 296.446L69.7314 296.446L69.7314 299.446L66.7314 299.446Z" fill="#121215"/>
<path d="M62.0049 289.985L62.0049 286.985L65.0049 286.985L65.0049 289.985L62.0049 289.985Z" fill="#121215"/>
<path d="M62.0049 299.446L62.0049 296.446L65.0049 296.446L65.0049 299.446L62.0049 299.446Z" fill="#121215"/>
<path d="M62.0049 304.175L62.0049 301.175L65.0049 301.175L65.0049 304.175L62.0049 304.175Z" fill="#121215"/>
<path d="M57.2744 285.257L57.2744 282.257L60.2744 282.257L60.2744 285.257L57.2744 285.257Z" fill="#121215"/>
<path d="M52.5479 285.257L52.5479 282.257L55.5479 282.257L55.5479 285.257L52.5479 285.257Z" fill="#121215"/>
<path d="M52.5479 289.985L52.5479 286.985L55.5479 286.985L55.5479 289.985L52.5479 289.985Z" fill="#121215"/>
<path d="M52.5479 294.714L52.5479 291.714L55.5479 291.714L55.5479 294.714L52.5479 294.714Z" fill="#121215"/>
<path d="M52.5479 304.174L52.5479 301.174L55.5479 301.174L55.5479 304.174L52.5479 304.174Z" fill="#121215"/>
<path d="M47.8213 289.985L47.8213 286.985L50.8213 286.985L50.8213 289.985L47.8213 289.985Z" fill="#121215"/>
<path d="M47.8213 294.714L47.8213 291.714L50.8213 291.714L50.8213 294.714L47.8213 294.714Z" fill="#121215"/>
<path d="M47.8213 299.446L47.8213 296.446L50.8213 296.446L50.8213 299.446L47.8213 299.446Z" fill="#121215"/>
<path d="M43.0928 289.985L43.0928 286.985L46.0928 286.985L46.0928 289.985L43.0928 289.985Z" fill="#121215"/>
<path d="M43.0928 294.714L43.0928 291.714L46.0928 291.714L46.0928 294.714L43.0928 294.714Z" fill="#121215"/>
<path d="M43.0928 299.446L43.0928 296.446L46.0928 296.446L46.0928 299.446L43.0928 299.446Z" fill="#121215"/>
<path d="M33.3662 90.2498L33.3662 87.2498L36.3662 87.2498L36.3662 90.2498L33.3662 90.2498Z" fill="#121215"/>
<path d="M33.3662 99.707L33.3662 96.707L36.3662 96.707L36.3662 99.707L33.3662 99.707Z" fill="#121215"/>
<path d="M38.3662 289.985L38.3662 286.985L41.3662 286.985L41.3662 289.985L38.3662 289.985Z" fill="#121215"/>
<path d="M38.3662 294.714L38.3662 291.714L41.3662 291.714L41.3662 294.714L38.3662 294.714Z" fill="#121215"/>
<path d="M34.001 185L34.001 182L37.001 182L37.001 185L34.001 185Z" fill="#121215"/>
<path d="M34.001 190L34.001 187L37.001 187L37.001 190L34.001 190Z" fill="#7CE0FE"/>
<path d="M34.001 196L34.001 193L37.001 193L37.001 196L34.001 196Z" fill="#121215"/>
<path d="M34.001 201L34.001 198L37.001 198L37.001 201L34.001 201Z" fill="#121215"/>
<path d="M33.6357 209.574L33.6357 206.574L36.6357 206.574L36.6357 209.574L33.6357 209.574Z" fill="#121215"/>
<path d="M33.6357 214.307L33.6357 211.307L36.6357 211.307L36.6357 214.307L33.6357 214.307Z" fill="#121215"/>
<path d="M33.6357 242.685L33.6357 239.685L36.6357 239.685L36.6357 242.685L33.6357 242.685Z" fill="#121215"/>
<path d="M33.6357 252.146L33.6357 249.146L36.6357 249.146L36.6357 252.146L33.6357 252.146Z" fill="#121215"/>
<path d="M33.6357 261.607L33.6357 258.607L36.6357 258.607L36.6357 261.607L33.6357 261.607Z" fill="#121215"/>
<path d="M33.6357 266.335L33.6357 263.335L36.6357 263.335L36.6357 266.335L33.6357 266.335Z" fill="#121215"/>
<path d="M33.6357 271.064L33.6357 268.064L36.6357 268.064L36.6357 271.064L33.6357 271.064Z" fill="#121215"/>
<path d="M33.6357 280.524L33.6357 277.524L36.6357 277.524L36.6357 280.524L33.6357 280.524Z" fill="#121215"/>
<path d="M33.6357 285.257L33.6357 282.257L36.6357 282.257L36.6357 285.257L33.6357 285.257Z" fill="#121215"/>
<path d="M33.6357 294.714L33.6357 291.714L36.6357 291.714L36.6357 294.714L33.6357 294.714Z" fill="#121215"/>
<path d="M28.9092 228.496L28.9092 225.496L31.9092 225.496L31.9092 228.496L28.9092 228.496Z" fill="#121215"/>
<path d="M28.9092 233.225L28.9092 230.225L31.9092 230.225L31.9092 233.225L28.9092 233.225Z" fill="#121215"/>
<path d="M28.9092 242.685L28.9092 239.685L31.9092 239.685L31.9092 242.685L28.9092 242.685Z" fill="#121215"/>
<path d="M28.9092 252.146L28.9092 249.146L31.9092 249.146L31.9092 252.146L28.9092 252.146Z" fill="#121215"/>
<path d="M28.9092 266.335L28.9092 263.335L31.9092 263.335L31.9092 266.335L28.9092 266.335Z" fill="#121215"/>
<path d="M28.9092 271.064L28.9092 268.064L31.9092 268.064L31.9092 271.064L28.9092 271.064Z" fill="#121215"/>
<path d="M28.9092 280.524L28.9092 277.524L31.9092 277.524L31.9092 280.524L28.9092 280.524Z" fill="#121215"/>
<path d="M28.9092 285.257L28.9092 282.257L31.9092 282.257L31.9092 285.257L28.9092 285.257Z" fill="#121215"/>
<path d="M28.9092 289.985L28.9092 286.985L31.9092 286.985L31.9092 289.985L28.9092 289.985Z" fill="#121215"/>
<path d="M28.9092 299.446L28.9092 296.446L31.9092 296.446L31.9092 299.446L28.9092 299.446Z" fill="#121215"/>
<path d="M24.1826 266.335L24.1826 263.335L27.1826 263.335L27.1826 266.335L24.1826 266.335Z" fill="#121215"/>
<path d="M24.1826 271.064L24.1826 268.064L27.1826 268.064L27.1826 271.064L24.1826 271.064Z" fill="#121215"/>
<path d="M24.1826 275.796L24.1826 272.796L27.1826 272.796L27.1826 275.796L24.1826 275.796Z" fill="#121215"/>
<path d="M24.1826 285.257L24.1826 282.257L27.1826 282.257L27.1826 285.257L24.1826 285.257Z" fill="#121215"/>
<path d="M24.1826 289.985L24.1826 286.985L27.1826 286.985L27.1826 289.985L24.1826 289.985Z" fill="#121215"/>
<path d="M24.1826 294.714L24.1826 291.714L27.1826 291.714L27.1826 294.714L24.1826 294.714Z" fill="#121215"/>
<path d="M24.1826 299.446L24.1826 296.446L27.1826 296.446L27.1826 299.446L24.1826 299.446Z" fill="#121215"/>
<path d="M24.1826 304.174L24.1826 301.174L27.1826 301.174L27.1826 304.174L24.1826 304.174Z" fill="#121215"/>
<path d="M19.4531 133.896L19.4531 130.896L22.4531 130.896L22.4531 133.896L19.4531 133.896Z" fill="#121215"/>
<path d="M19.4531 138.628L19.4531 135.628L22.4531 135.628L22.4531 138.628L19.4531 138.628Z" fill="#121215"/>
<path d="M19.4531 162.279L19.4531 159.279L22.4531 159.279L22.4531 162.279L19.4531 162.279Z" fill="#121215"/>
<path d="M19.4531 167.007L19.4531 164.007L22.4531 164.007L22.4531 167.007L19.4531 167.007Z" fill="#121215"/>
<path d="M19.4531 181.196L19.4531 178.196L22.4531 178.196L22.4531 181.196L19.4531 181.196Z" fill="#121215"/>
<path d="M19.4531 200.118L19.4531 197.118L22.4531 197.118L22.4531 200.118L19.4531 200.118Z" fill="#121215"/>
<path d="M19.4531 204.846L19.4531 201.846L22.4531 201.846L22.4531 204.846L19.4531 204.846Z" fill="#121215"/>
<path d="M19.4531 219.035L19.4531 216.035L22.4531 216.035L22.4531 219.035L19.4531 219.035Z" fill="#121215"/>
<path d="M19.4531 237.957L19.4531 234.957L22.4531 234.957L22.4531 237.957L19.4531 237.957Z" fill="#121215"/>
<path d="M19.4531 247.418L19.4531 244.418L22.4531 244.418L22.4531 247.418L19.4531 247.418Z" fill="#121215"/>
<path d="M19.4531 252.146L19.4531 249.146L22.4531 249.146L22.4531 252.146L19.4531 252.146Z" fill="#121215"/>
<path d="M19.4531 261.607L19.4531 258.607L22.4531 258.607L22.4531 261.607L19.4531 261.607Z" fill="#121215"/>
<path d="M19.4531 266.335L19.4531 263.335L22.4531 263.335L22.4531 266.335L19.4531 266.335Z" fill="#121215"/>
<path d="M19.4531 271.064L19.4531 268.064L22.4531 268.064L22.4531 271.064L19.4531 271.064Z" fill="#121215"/>
<path d="M19.4531 275.796L19.4531 272.796L22.4531 272.796L22.4531 275.796L19.4531 275.796Z" fill="#121215"/>
<path d="M19.4531 280.524L19.4531 277.524L22.4531 277.524L22.4531 280.524L19.4531 280.524Z" fill="#121215"/>
<path d="M19.4531 285.257L19.4531 282.257L22.4531 282.257L22.4531 285.257L19.4531 285.257Z" fill="#121215"/>
<path d="M19.4531 289.985L19.4531 286.985L22.4531 286.985L22.4531 289.985L19.4531 289.985Z" fill="#121215"/>
<path d="M19.4531 294.714L19.4531 291.714L22.4531 291.714L22.4531 294.714L19.4531 294.714Z" fill="#121215"/>
<path d="M19.4531 299.446L19.4531 296.446L22.4531 296.446L22.4531 299.446L19.4531 299.446Z" fill="#121215"/>
<path d="M19.4531 304.175L19.4531 301.175L22.4531 301.175L22.4531 304.175L19.4531 304.175Z" fill="#121215"/>
<path d="M14.7266 152.818L14.7266 149.818L17.7266 149.818L17.7266 152.818L14.7266 152.818Z" fill="#121215"/>
<path d="M14.7266 157.546L14.7266 154.546L17.7266 154.546L17.7266 157.546L14.7266 157.546Z" fill="#121215"/>
<path d="M14.7266 171.735L14.7266 168.735L17.7266 168.735L17.7266 171.735L14.7266 171.735Z" fill="#121215"/>
<path d="M14.7266 176.468L14.7266 173.468L17.7266 173.468L17.7266 176.468L14.7266 176.468Z" fill="#121215"/>
<path d="M14.7266 190.657L14.7266 187.657L17.7266 187.657L17.7266 190.657L14.7266 190.657Z" fill="#121215"/>
<path d="M14.7266 200.118L14.7266 197.118L17.7266 197.118L17.7266 200.118L14.7266 200.118Z" fill="#121215"/>
<path d="M14.7266 204.846L14.7266 201.846L17.7266 201.846L17.7266 204.846L14.7266 204.846Z" fill="#121215"/>
<path d="M14.7266 209.574L14.7266 206.574L17.7266 206.574L17.7266 209.574L14.7266 209.574Z" fill="#121215"/>
<path d="M14.7266 219.035L14.7266 216.035L17.7266 216.035L17.7266 219.035L14.7266 219.035Z" fill="#121215"/>
<path d="M14.7266 223.768L14.7266 220.768L17.7266 220.768L17.7266 223.768L14.7266 223.768Z" fill="#121215"/>
<path d="M14.7266 228.496L14.7266 225.496L17.7266 225.496L17.7266 228.496L14.7266 228.496Z" fill="#121215"/>
<path d="M14.7266 233.225L14.7266 230.225L17.7266 230.225L17.7266 233.225L14.7266 233.225Z" fill="#121215"/>
<path d="M14.7266 256.875L14.7266 253.875L17.7266 253.875L17.7266 256.875L14.7266 256.875Z" fill="#121215"/>
<path d="M14.7266 261.607L14.7266 258.607L17.7266 258.607L17.7266 261.607L14.7266 261.607Z" fill="#121215"/>
<path d="M14.7266 266.335L14.7266 263.335L17.7266 263.335L17.7266 266.335L14.7266 266.335Z" fill="#121215"/>
<path d="M14.7266 271.064L14.7266 268.064L17.7266 268.064L17.7266 271.064L14.7266 271.064Z" fill="#121215"/>
<path d="M14.7266 275.796L14.7266 272.796L17.7266 272.796L17.7266 275.796L14.7266 275.796Z" fill="#121215"/>
<path d="M14.7266 289.985L14.7266 286.985L17.7266 286.985L17.7266 289.985L14.7266 289.985Z" fill="#121215"/>
<path d="M14.7266 299.446L14.7266 296.446L17.7266 296.446L17.7266 299.446L14.7266 299.446Z" fill="#121215"/>
<path d="M14.7266 304.175L14.7266 301.175L17.7266 301.175L17.7266 304.175L14.7266 304.175Z" fill="#121215"/>
<path d="M10 167.007L10 164.007L13 164.007L13 167.007L10 167.007Z" fill="#121215"/>
<path d="M10 176.468L10 173.468L13 173.468L13 176.468L10 176.468Z" fill="#121215"/>
<path d="M10 181.196L10 178.196L13 178.196L13 181.196L10 181.196Z" fill="#121215"/>
<path d="M10 190.657L10 187.657L13 187.657L13 190.657L10 190.657Z" fill="#121215"/>
<path d="M10 200.118L10 197.118L13 197.118L13 200.118L10 200.118Z" fill="#121215"/>
<path d="M10 204.846L10 201.846L13 201.846L13 204.846L10 204.846Z" fill="#121215"/>
<path d="M10 209.574L10 206.574L13 206.574L13 209.574L10 209.574Z" fill="#121215"/>
<path d="M10 214.307L10 211.307L13 211.307L13 214.307L10 214.307Z" fill="#121215"/>
<path d="M10 233.225L10 230.225L13 230.225L13 233.225L10 233.225Z" fill="#121215"/>
<path d="M10 247.418L10 244.418L13 244.418L13 247.418L10 247.418Z" fill="#121215"/>
<path d="M10 256.875L10 253.875L13 253.875L13 256.875L10 256.875Z" fill="#121215"/>
<path d="M10 261.607L10 258.607L13 258.607L13 261.607L10 261.607Z" fill="#121215"/>
<path d="M10 266.335L10 263.335L13 263.335L13 266.335L10 266.335Z" fill="#121215"/>
<path d="M10 271.064L10 268.064L13 268.064L13 271.064L10 271.064Z" fill="#121215"/>
<path d="M10 275.796L10 272.796L13 272.796L13 275.796L10 275.796Z" fill="#121215"/>
<path d="M10 280.524L10 277.524L13 277.524L13 280.524L10 280.524Z" fill="#121215"/>
<path d="M10 299.446L10 296.446L13 296.446L13 299.446L10 299.446Z" fill="#121215"/>
<path d="M10 304.175L10 301.175L13 301.175L13 304.175L10 304.175Z" fill="#121215"/>
<path d="M114.651 21.4612L114.651 18.4612L117.651 18.4612L117.651 21.4612L114.651 21.4612Z" fill="#121215"/>
<path d="M107.176 70.4612L107.176 67.4612L110.176 67.4612L110.176 70.4612L107.176 70.4612Z" fill="#121215"/>
<path d="M107.176 75.1895L107.176 72.1895L110.176 72.1895L110.176 75.1895L107.176 75.1895Z" fill="#121215"/>
<path d="M107.176 79.9224L107.176 76.9224L110.176 76.9224L110.176 79.9224L107.176 79.9224Z" fill="#121215"/>
<path d="M107.176 84.6504L107.176 81.6504L110.176 81.6504L110.176 84.6504L107.176 84.6504Z" fill="#121215"/>
<path d="M107.176 89.3828L107.176 86.3828L110.176 86.3828L110.176 89.3828L107.176 89.3828Z" fill="#121215"/>
<path d="M107.176 98.8396L107.176 95.8396L110.176 95.8396L110.176 98.8396L107.176 98.8396Z" fill="#121215"/>
<path d="M107.176 103.572L107.176 100.572L110.176 100.572L110.176 103.572L107.176 103.572Z" fill="#121215"/>
<path d="M107.176 109.3L107.176 106.3L110.176 106.3L110.176 109.3L107.176 109.3Z" fill="#121215"/>
<path d="M107.176 122.49L107.176 119.49L110.176 119.49L110.176 122.49L107.176 122.49Z" fill="#121215"/>
<path d="M107.176 136.679L107.176 133.679L110.176 133.679L110.176 136.679L107.176 136.679Z" fill="#121215"/>
<path d="M107.176 141.411L107.176 138.411L110.176 138.411L110.176 141.411L107.176 141.411Z" fill="#121215"/>
<path d="M78 61.0002L78 58.0002L81 58.0002L81 61.0002L78 61.0002Z" fill="#121215"/>
<path d="M78 70.4612L78 67.4612L81 67.4612L81 70.4612L78 70.4612Z" fill="#121215"/>
<path d="M78 75.1892L78 72.1892L81 72.1892L81 75.1892L78 75.1892Z" fill="#121215"/>
<path d="M78 84.6501L78 81.6501L81 81.6501L81 84.6501L78 84.6501Z" fill="#121215"/>
<path d="M78 89.3826L78 86.3826L81 86.3826L81 89.3826L78 89.3826Z" fill="#121215"/>
<path d="M78 94.1111L78 91.1111L81 91.1111L81 94.1111L78 94.1111Z" fill="#121215"/>
<path d="M78 98.8396L78 95.8396L81 95.8396L81 98.8396L78 98.8396Z" fill="#121215"/>
<path d="M78 109.3L78 106.3L81 106.3L81 109.3L78 109.3Z" fill="#121215"/>
<path d="M78 122.49L78 119.49L81 119.49L81 122.49L78 122.49Z" fill="#121215"/>
<path d="M78 131.95L78 128.95L81 128.95L81 131.95L78 131.95Z" fill="#121215"/>
<path d="M78 141.411L78 138.411L81 138.411L81 141.411L78 141.411Z" fill="#121215"/>
<path d="M130 21.0005L130 18.0005L133 18.0005L133 21.0005L130 21.0005Z" fill="#121215"/>
<path d="M130 25.7327L130 22.7327L133 22.7327L133 25.7327L130 25.7327Z" fill="#121215"/>
<path d="M123.934 92.1113L123.934 91.9868L124.591 91.9868L124.591 92.1113L123.934 92.1113Z" fill="#121215"/>
<path d="M126.13 90.749L126.13 90.6245L126.787 90.6245L126.787 90.749L126.13 90.749Z" fill="#121215"/>
<path d="M126.255 91.6944L126.255 91.5698L126.912 91.5698L126.912 91.6944L126.255 91.6944Z" fill="#121215"/>
<path d="M123.954 89.5127L123.954 89.3882L124.611 89.3882L124.611 89.5127L123.954 89.5127Z" fill="#121215"/>
<path d="M123.954 89.7188L123.954 89.5942L124.611 89.5942L124.611 89.7188L123.954 89.7188Z" fill="#121215"/>
<path d="M123.954 90.3369L123.954 90.2124L124.611 90.2124L124.611 90.3369L123.954 90.3369Z" fill="#121215"/>
<path d="M123.954 90.749L123.954 90.6245L124.611 90.6245L124.611 90.749L123.954 90.749Z" fill="#121215"/>
<path d="M125.063 91.2666L125.062 91.1421L125.72 91.1421L125.72 91.2666L125.063 91.2666Z" fill="#121215"/>
<path d="M125.063 91.4732L125.062 91.3486L125.72 91.3486L125.72 91.4732L125.063 91.4732Z" fill="#121215"/>
<path d="M125.063 91.6792L125.062 91.5547L125.72 91.5547L125.72 91.6792L125.063 91.6792Z" fill="#121215"/>
<path d="M123.912 90.02L123.912 89.8955L124.569 89.8955L124.569 90.02L123.912 90.02Z" fill="#121215"/>
<path d="M123.975 91.0611L123.975 90.9365L124.632 90.9365L124.632 91.0611L123.975 91.0611Z" fill="#121215"/>
<path d="M123.975 91.6792L123.975 91.5547L124.632 91.5547L124.632 91.6792L123.975 91.6792Z" fill="#121215"/>
<path d="M125.585 89.2359L125.585 89.1113L126.242 89.1113L126.242 89.2359L125.585 89.2359Z" fill="#121215"/>
<path d="M125.543 90.523L125.543 90.3984L126.2 90.3984L126.2 90.523L125.543 90.523Z" fill="#121215"/>
<path d="M125.543 89.4922L125.543 89.3677L126.2 89.3677L126.2 89.4922L125.543 89.4922Z" fill="#121215"/>
<path d="M125.543 89.9048L125.543 89.7803L126.2 89.7803L126.2 89.9048L125.543 89.9048Z" fill="#121215"/>
<path d="M102.449 75.1895L102.449 72.1895L105.449 72.1895L105.449 75.1895L102.449 75.1895Z" fill="#121215"/>
<path d="M102.449 89.3826L102.449 86.3826L105.449 86.3826L105.449 89.3826L102.449 89.3826Z" fill="#121215"/>
<path d="M102.449 94.1111L102.449 91.1111L105.449 91.1111L105.449 94.1111L102.449 94.1111Z" fill="#121215"/>
<path d="M102.449 98.8396L102.449 95.8396L105.449 95.8396L105.449 98.8396L102.449 98.8396Z" fill="#121215"/>
<path d="M102.449 109.3L102.449 106.3L105.449 106.3L105.449 109.3L102.449 109.3Z" fill="#121215"/>
<path d="M102.449 113.029L102.449 110.029L105.449 110.029L105.449 113.029L102.449 113.029Z" fill="#121215"/>
<path d="M102.449 117.761L102.449 114.761L105.449 114.761L105.449 117.761L102.449 117.761Z" fill="#121215"/>
<path d="M102.449 122.49L102.449 119.49L105.449 119.49L105.449 122.49L102.449 122.49Z" fill="#121215"/>
<path d="M102.449 131.95L102.449 128.95L105.449 128.95L105.449 131.95L102.449 131.95Z" fill="#121215"/>
<path d="M102.449 136.679L102.449 133.679L105.449 133.679L105.449 136.679L102.449 136.679Z" fill="#121215"/>
<path d="M102.449 146.139L102.449 143.139L105.449 143.139L105.449 146.139L102.449 146.139Z" fill="#121215"/>
<path d="M102.449 150.872L102.449 147.872L105.449 147.872L105.449 150.872L102.449 150.872Z" fill="#121215"/>
<path d="M102.449 155.6L102.449 152.6L105.449 152.6L105.449 155.6L102.449 155.6Z" fill="#121215"/>
<g filter="url(#filter0_dddddd_493_57345)">
<path d="M209.5 107L209.5 199.375L193.5 222.296L193.5 312.5" stroke="#7CE0FE" stroke-miterlimit="10"/>
<path d="M193.5 237.501L220.5 200.501L220.5 154.696" stroke="#7CE0FE" stroke-miterlimit="10"/>
<path d="M180.56 222.632L169.5 211L169.5 174.379" stroke="#7CE0FE" stroke-miterlimit="10"/>
<path d="M180.5 241L168.5 253L168.5 282.32L180.5 294.5" stroke="#7CE0FE" stroke-miterlimit="10"/>
<path d="M197.5 107.126L197.5 199.5L180.5 222.295L180.5 314" stroke="#7CE0FE" stroke-miterlimit="10"/>
<path d="M189.17 210.558L180.5 198.242L180.5 107" stroke="#7CE0FE" stroke-miterlimit="10"/>
<path d="M171.5 107.176L171.5 131.5L180.5 144.5" stroke="#7CE0FE" stroke-miterlimit="10"/>
<path d="M193.5 311L207.5 296.639L207.5 264L215.5 256.701L215.5 238.5" stroke="#7CE0FE" stroke-miterlimit="10"/>
</g>
<path d="M61.1572 -169L61.1572 -76.6254L44.5 -53.7046L44.5 71.0004" stroke="#7CE0FE" stroke-miterlimit="10"/>
<path d="M32.06 -34.574L20.5 -22.8188L20.5 6.50037L33.2217 19.141" stroke="#7CE0FE" stroke-miterlimit="10"/>
<path d="M49.208 -169L49.208 -76.6254L33.5 -53.8406L33.5 70.8644" stroke="#7CE0FE" stroke-miterlimit="10"/>
<path d="M44.5 36.0004L60.5 20.5004L60.5 -12.138L67.0762 -19.2505L67.0762 -37.4506" stroke="#7CE0FE" stroke-miterlimit="10"/>
<g filter="url(#filter1_ii_493_57345)">
<path d="M103.199 17.9084C100.848 15.4902 97.5222 15.5494 94.8838 17.0848C94.9223 17.2393 94.9428 17.4011 94.9428 17.5678C94.9428 18.6545 94.0734 19.5355 93.001 19.5355C91.9286 19.5355 91.0592 18.6545 91.0592 17.5678C91.0592 17.4011 91.0796 17.2393 91.1181 17.0848C88.4798 15.5493 85.1543 15.4902 82.8033 17.9084C81.5942 19.1521 81.0343 20.6852 81.001 22.275C81.85 22.4853 82.48 23.2613 82.48 24.1864C82.48 24.8232 82.1815 25.3894 81.7185 25.749C82.0773 26.5802 82.5619 27.379 83.1534 28.1093C85.5716 31.0951 88.7904 33.7038 91.9252 35.9995C92.233 35.7918 92.6027 35.6707 93.0003 35.6707C93.3982 35.6707 93.7681 35.7919 94.0761 36C97.2111 33.7041 100.43 31.0953 102.849 28.1093C103.44 27.379 103.925 26.5802 104.283 25.749C103.82 25.3894 103.522 24.8232 103.522 24.1864C103.522 23.2613 104.152 22.4853 105.001 22.275C104.968 20.6852 104.408 19.1521 103.199 17.9084Z" fill="#17171B"/>
</g>
<g filter="url(#filter2_ii_493_57345)">
<path d="M133.199 17.9084C130.848 15.4902 127.522 15.5494 124.884 17.0848C124.922 17.2393 124.943 17.4011 124.943 17.5678C124.943 18.6545 124.073 19.5355 123.001 19.5355C121.929 19.5355 121.059 18.6545 121.059 17.5678C121.059 17.4011 121.08 17.2393 121.118 17.0848C118.48 15.5493 115.154 15.4902 112.803 17.9084C111.594 19.1521 111.034 20.6852 111.001 22.275C111.85 22.4853 112.48 23.2613 112.48 24.1864C112.48 24.8232 112.181 25.3894 111.719 25.749C112.077 26.5802 112.562 27.379 113.153 28.1093C115.572 31.0951 118.79 33.7038 121.925 35.9995C122.233 35.7918 122.603 35.6707 123 35.6707C123.398 35.6707 123.768 35.7919 124.076 36C127.211 33.7041 130.43 31.0953 132.849 28.1093C133.44 27.379 133.925 26.5802 134.283 25.749C133.82 25.3894 133.522 24.8232 133.522 24.1864C133.522 23.2613 134.152 22.4853 135.001 22.275C134.968 20.6852 134.408 19.1521 133.199 17.9084Z" fill="#17171B"/>
</g>
<g filter="url(#filter3_ii_493_57345)">
<path d="M163.199 17.9084C160.848 15.4902 157.522 15.5494 154.884 17.0848C154.922 17.2393 154.943 17.4011 154.943 17.5678C154.943 18.6545 154.073 19.5355 153.001 19.5355C151.929 19.5355 151.059 18.6545 151.059 17.5678C151.059 17.4011 151.08 17.2393 151.118 17.0848C148.48 15.5493 145.154 15.4902 142.803 17.9084C141.594 19.1521 141.034 20.6852 141.001 22.275C141.85 22.4853 142.48 23.2613 142.48 24.1864C142.48 24.8232 142.181 25.3894 141.719 25.749C142.077 26.5802 142.562 27.379 143.153 28.1093C145.572 31.0951 148.79 33.7038 151.925 35.9995C152.233 35.7918 152.603 35.6707 153 35.6707C153.398 35.6707 153.768 35.7919 154.076 36C157.211 33.7041 160.43 31.0953 162.849 28.1093C163.44 27.379 163.925 26.5802 164.283 25.749C163.82 25.3894 163.522 24.8232 163.522 24.1864C163.522 23.2613 164.152 22.4853 165.001 22.275C164.968 20.6852 164.408 19.1521 163.199 17.9084Z" fill="#17171B"/>
</g>
<g filter="url(#filter4_ii_493_57345)">
<path d="M193.199 17.9084C190.848 15.4902 187.522 15.5494 184.884 17.0848C184.922 17.2393 184.943 17.4011 184.943 17.5678C184.943 18.6545 184.073 19.5355 183.001 19.5355C181.929 19.5355 181.059 18.6545 181.059 17.5678C181.059 17.4011 181.08 17.2393 181.118 17.0848C178.48 15.5493 175.154 15.4902 172.803 17.9084C171.594 19.1521 171.034 20.6852 171.001 22.275C171.85 22.4853 172.48 23.2613 172.48 24.1864C172.48 24.8232 172.181 25.3894 171.719 25.749C172.077 26.5802 172.562 27.379 173.153 28.1093C175.572 31.0951 178.79 33.7038 181.925 35.9995C182.233 35.7918 182.603 35.6707 183 35.6707C183.398 35.6707 183.768 35.7919 184.076 36C187.211 33.7041 190.43 31.0953 192.849 28.1093C193.44 27.379 193.925 26.5802 194.283 25.749C193.82 25.3894 193.522 24.8232 193.522 24.1864C193.522 23.2613 194.152 22.4853 195.001 22.275C194.968 20.6852 194.408 19.1521 193.199 17.9084Z" fill="#17171B"/>
</g>
<g filter="url(#filter5_ddddd_493_57345)">
<path d="M218.399 23.5908L218.399 22.3721C218.66 22.3252 218.889 22.238 219.087 22.1104C219.285 21.9827 219.453 21.8265 219.591 21.6416C219.729 21.4567 219.833 21.2497 219.903 21.0205C219.974 20.7939 220.009 20.5531 220.009 20.2979C220.009 19.8369 219.893 19.4242 219.661 19.0596C219.429 18.6976 219.09 18.4111 218.642 18.2002C218.194 17.9919 217.647 17.8877 217.001 17.8877C216.35 17.8877 215.8 17.9919 215.353 18.2002C214.905 18.4111 214.566 18.6989 214.337 19.0635C214.108 19.4281 213.993 19.8382 213.993 20.2939C213.993 20.5465 214.027 20.7861 214.095 21.0127C214.165 21.2419 214.268 21.4489 214.403 21.6338C214.539 21.8187 214.704 21.9749 214.899 22.1025C215.097 22.2327 215.324 22.3226 215.579 22.3721L215.575 23.5908C215.182 23.5257 214.82 23.3994 214.489 23.2119C214.161 23.027 213.877 22.7887 213.638 22.4971C213.401 22.208 213.217 21.8773 213.087 21.5049C212.957 21.1325 212.892 20.7262 212.892 20.2861C212.892 19.5934 213.056 18.9762 213.384 18.4346C213.715 17.8929 214.187 17.4658 214.802 17.1533C215.416 16.8434 216.149 16.6885 217.001 16.6885C217.855 16.6885 218.588 16.8447 219.2 17.1572C219.815 17.4697 220.286 17.8968 220.614 18.4385C220.945 18.9801 221.11 19.596 221.11 20.2861C221.11 20.7106 221.049 21.1064 220.927 21.4736C220.807 21.8434 220.63 22.1755 220.396 22.4697C220.164 22.764 219.88 23.0075 219.544 23.2002C219.211 23.3929 218.829 23.5231 218.399 23.5908ZM210.751 25.7012C210.751 25.5267 210.765 25.3678 210.794 25.2246C210.82 25.0814 210.849 24.9746 210.88 24.9043L211.837 25.1855C211.78 25.3991 211.755 25.5892 211.763 25.7559C211.771 25.9225 211.833 26.0697 211.95 26.1973C212.067 26.3275 212.259 26.4421 212.524 26.541L212.923 26.6855L219.001 24.4902L219.001 25.7402L214.345 27.2598L214.345 27.3223L219.001 28.8418L219.001 30.0957L212.2 27.623C211.888 27.5085 211.623 27.3626 211.407 27.1855C211.188 27.0085 211.024 26.7975 210.915 26.5527C210.806 26.3079 210.751 26.0241 210.751 25.7012ZM213.001 31.2871L221.001 31.2871L221.001 32.4551L218.028 32.4551L218.028 32.5254C218.153 32.5931 218.298 32.6908 218.462 32.8184C218.626 32.946 218.769 33.123 218.892 33.3496C219.017 33.5762 219.079 33.8756 219.079 34.248C219.079 34.7324 218.957 35.1647 218.712 35.5449C218.467 35.9251 218.114 36.2233 217.653 36.4395C217.192 36.6582 216.638 36.7676 215.989 36.7676C215.341 36.7676 214.785 36.6595 214.321 36.4434C213.86 36.2272 213.505 35.9303 213.255 35.5527C213.007 35.1751 212.884 34.7441 212.884 34.2598C212.884 33.8952 212.945 33.597 213.067 33.3652C213.19 33.1361 213.333 32.9564 213.497 32.8262C213.661 32.696 213.807 32.5957 213.935 32.5254L213.935 32.4277L213.001 32.4277L213.001 31.2871ZM216.001 32.4316C215.579 32.4316 215.209 32.4928 214.892 32.6152C214.574 32.7376 214.325 32.9147 214.146 33.1465C213.968 33.3783 213.88 33.6621 213.88 33.998C213.88 34.347 213.972 34.6387 214.157 34.873C214.345 35.1074 214.599 35.2845 214.919 35.4043C215.239 35.5267 215.6 35.5879 216.001 35.5879C216.397 35.5879 216.752 35.528 217.067 35.4082C217.382 35.291 217.631 35.1139 217.813 34.877C217.996 34.6426 218.087 34.3496 218.087 33.998C218.087 33.6595 218 33.373 217.825 33.1387C217.651 32.9069 217.407 32.7311 217.095 32.6113C216.782 32.4915 216.418 32.4316 216.001 32.4316ZM212.88 40.665C212.88 40.0739 213.006 39.5648 213.259 39.1377C213.514 38.7132 213.872 38.3851 214.333 38.1533C214.797 37.9242 215.34 37.8096 215.962 37.8096C216.576 37.8096 217.118 37.9242 217.587 38.1533C218.056 38.3851 218.422 38.708 218.685 39.1221C218.948 39.5387 219.079 40.0257 219.079 40.583C219.079 40.9215 219.023 41.2497 218.911 41.5674C218.799 41.8851 218.623 42.1702 218.384 42.4228C218.144 42.6755 217.833 42.8747 217.45 43.0205C217.07 43.1663 216.608 43.2393 216.063 43.2393L215.649 43.2393L215.649 38.4697L216.524 38.4697L216.524 42.0947C216.832 42.0947 217.104 42.0322 217.341 41.9072C217.58 41.7822 217.769 41.6064 217.907 41.3799C218.045 41.1559 218.114 40.8929 218.114 40.5908C218.114 40.2627 218.034 39.9762 217.872 39.7314C217.713 39.4893 217.505 39.3018 217.247 39.1689C216.992 39.0387 216.715 38.9736 216.415 38.9736L215.731 38.9736C215.33 38.9736 214.989 39.0439 214.708 39.1846C214.427 39.3278 214.212 39.527 214.063 39.7822C213.918 40.0374 213.845 40.3356 213.845 40.6768C213.845 40.8981 213.876 41.0999 213.938 41.2822C214.004 41.4645 214.1 41.6221 214.228 41.7549C214.355 41.8877 214.513 41.9893 214.7 42.0596L214.501 43.165C214.175 43.0765 213.89 42.9176 213.646 42.6885C213.403 42.4619 213.215 42.1768 213.079 41.833C212.946 41.4919 212.88 41.1025 212.88 40.665ZM213.001 44.5352L219.001 44.5352L219.001 45.6641L218.048 45.6641L218.048 45.7266C218.371 45.8359 218.625 46.0286 218.81 46.3047C218.997 46.5833 219.091 46.8984 219.091 47.25C219.091 47.3229 219.088 47.4089 219.083 47.5078C219.078 47.6094 219.071 47.6888 219.063 47.7461L217.946 47.7461C217.959 47.6992 217.974 47.6159 217.989 47.4961C218.007 47.3763 218.017 47.2565 218.017 47.1367C218.017 46.8607 217.958 46.6146 217.841 46.3984C217.726 46.1849 217.566 46.0156 217.36 45.8906C217.157 45.7656 216.925 45.7031 216.665 45.7031L213.001 45.7031L213.001 44.5352ZM210.751 48.7568L219.001 48.7568L219.001 49.8975L218.028 49.8975L218.028 49.9951C218.153 50.0628 218.298 50.1605 218.462 50.2881C218.626 50.4157 218.769 50.5928 218.892 50.8193C219.017 51.0459 219.079 51.3454 219.079 51.7178C219.079 52.2021 218.957 52.6344 218.712 53.0146C218.467 53.3949 218.114 53.693 217.653 53.9092C217.192 54.1279 216.638 54.2373 215.989 54.2373C215.341 54.2373 214.785 54.1292 214.321 53.9131C213.86 53.6969 213.505 53.4001 213.255 53.0225C213.007 52.6449 212.884 52.2139 212.884 51.7295C212.884 51.3649 212.945 51.0667 213.067 50.835C213.19 50.6058 213.333 50.4261 213.497 50.2959C213.661 50.1657 213.807 50.0654 213.935 49.9951L213.935 49.9248L210.751 49.9248L210.751 48.7568ZM216.001 49.9014C215.579 49.9014 215.209 49.9626 214.892 50.085C214.574 50.2074 214.325 50.3844 214.146 50.6162C213.968 50.848 213.88 51.1318 213.88 51.4678C213.88 51.8167 213.972 52.1084 214.157 52.3428C214.345 52.5771 214.599 52.7542 214.919 52.874C215.239 52.9964 215.6 53.0576 216.001 53.0576C216.397 53.0576 216.752 52.9977 217.067 52.8779C217.382 52.7607 217.631 52.5837 217.813 52.3467C217.996 52.1123 218.087 51.8193 218.087 51.4678C218.087 51.1292 218 50.8428 217.825 50.6084C217.651 50.3766 217.407 50.2008 217.095 50.0811C216.782 49.9613 216.418 49.9014 216.001 49.9014ZM215.489 59.3467L219.001 59.3467L219.001 60.5186L213.001 60.5186L213.001 59.3701L214.04 59.3701L214.04 59.3076C213.72 59.1696 213.453 58.9482 213.239 58.6436C213.028 58.3415 212.923 57.9652 212.923 57.5146C212.923 57.1292 213.007 56.7881 213.177 56.4912C213.349 56.1969 213.603 55.9652 213.938 55.7959C214.274 55.6292 214.69 55.5459 215.185 55.5459L219.001 55.5459L219.001 56.7139L215.325 56.7139C214.916 56.7139 214.591 56.8271 214.349 57.0537C214.106 57.2803 213.985 57.5745 213.985 57.9365C213.985 58.1553 214.04 58.3727 214.149 58.5889C214.259 58.8076 214.424 58.9886 214.646 59.1318C214.867 59.2777 215.148 59.3493 215.489 59.3467ZM216.563 63.2559L213.001 63.2559L213.001 62.0879L219.001 62.0879L219.001 63.209L218.024 63.209L218.024 63.2832C218.342 63.4212 218.597 63.6374 218.79 63.9316C218.983 64.2285 219.079 64.6022 219.079 65.0527C219.079 65.4616 218.993 65.8197 218.821 66.1269C218.652 66.4342 218.399 66.6725 218.063 66.8418C217.728 67.0111 217.312 67.0957 216.817 67.0957L213.001 67.0957L213.001 65.9277L216.677 65.9277C217.112 65.9277 217.451 65.8144 217.696 65.5879C217.944 65.3613 218.067 65.0501 218.067 64.6543C218.067 64.3835 218.009 64.1426 217.892 63.9316C217.774 63.7233 217.603 63.5579 217.376 63.4355C217.152 63.3158 216.881 63.2559 216.563 63.2559ZM215.036 69.7363L216.462 69.7285L216.462 69.9316L219.001 72.3223L219.001 73.7207L216.11 70.9941L216.11 70.8105L215.036 69.7363ZM213.001 68.6621L221.001 68.6621L221.001 69.8301L213.001 69.8301L213.001 68.6621ZM213.001 72.4512L215.853 70.3027L216.669 71.1074L213.001 73.8848L213.001 72.4512Z" fill="#FFFC01"/>
</g>
</g>
<defs>
<filter id="filter0_dddddd_493_57345" x="88" y="32.0005" width="213" height="367" filterUnits="userSpaceOnUse" color-interpolation-filters="sRGB">
<feFlood flood-opacity="0" result="BackgroundImageFix"/>
<feColorMatrix in="SourceAlpha" type="matrix" values="0 0 0 0 0 0 0 0 0 0 0 0 0 0 0 0 0 0 127 0" result="hardAlpha"/>
<feOffset dy="0.0925926"/>
<feGaussianBlur stdDeviation="1.57407"/>
<feColorMatrix type="matrix" values="0 0 0 0 0.0627451 0 0 0 0 0.0627451 0 0 0 0 0.0627451 0 0 0 0.199815 0"/>
<feBlend mode="normal" in2="BackgroundImageFix" result="effect1_dropShadow_493_57345"/>
<feColorMatrix in="SourceAlpha" type="matrix" values="0 0 0 0 0 0 0 0 0 0 0 0 0 0 0 0 0 0 127 0" result="hardAlpha"/>
<feOffset dy="0.407407"/>
<feGaussianBlur stdDeviation="3.25926"/>
<feColorMatrix type="matrix" values="0 0 0 0 0.0627451 0 0 0 0 0.0627451 0 0 0 0 0.0627451 0 0 0 0.325852 0"/>
<feBlend mode="normal" in2="effect1_dropShadow_493_57345" result="effect2_dropShadow_493_57345"/>
<feColorMatrix in="SourceAlpha" type="matrix" values="0 0 0 0 0 0 0 0 0 0 0 0 0 0 0 0 0 0 127 0" result="hardAlpha"/>
<feOffset dy="1"/>
<feGaussianBlur stdDeviation="6.5"/>
<feColorMatrix type="matrix" values="0 0 0 0 0.0627451 0 0 0 0 0.0627451 0 0 0 0 0.0627451 0 0 0 0.415 0"/>
<feBlend mode="normal" in2="effect2_dropShadow_493_57345" result="effect3_dropShadow_493_57345"/>
<feColorMatrix in="SourceAlpha" type="matrix" values="0 0 0 0 0 0 0 0 0 0 0 0 0 0 0 0 0 0 127 0" result="hardAlpha"/>
<feOffset dy="1.92593"/>
<feGaussianBlur stdDeviation="12.7407"/>
<feColorMatrix type="matrix" values="0 0 0 0 0.0627451 0 0 0 0 0.0627451 0 0 0 0 0.0627451 0 0 0 0.504148 0"/>
<feBlend mode="normal" in2="effect3_dropShadow_493_57345" result="effect4_dropShadow_493_57345"/>
<feColorMatrix in="SourceAlpha" type="matrix" values="0 0 0 0 0 0 0 0 0 0 0 0 0 0 0 0 0 0 127 0" result="hardAlpha"/>
<feOffset dy="3.24074"/>
<feGaussianBlur stdDeviation="23.4259"/>
<feColorMatrix type="matrix" values="0 0 0 0 0.0627451 0 0 0 0 0.0627451 0 0 0 0 0.0627451 0 0 0 0.630185 0"/>
<feBlend mode="normal" in2="effect4_dropShadow_493_57345" result="effect5_dropShadow_493_57345"/>
<feColorMatrix in="SourceAlpha" type="matrix" values="0 0 0 0 0 0 0 0 0 0 0 0 0 0 0 0 0 0 127 0" result="hardAlpha"/>
<feOffset dy="5"/>
<feGaussianBlur stdDeviation="40"/>
<feColorMatrix type="matrix" values="0 0 0 0 0.0627451 0 0 0 0 0.0627451 0 0 0 0 0.0627451 0 0 0 0.83 0"/>
<feBlend mode="normal" in2="effect5_dropShadow_493_57345" result="effect6_dropShadow_493_57345"/>
<feBlend mode="normal" in="SourceGraphic" in2="effect6_dropShadow_493_57345" result="shape"/>
</filter>
<filter id="filter1_ii_493_57345" x="81.001" y="16" width="24" height="21" filterUnits="userSpaceOnUse" color-interpolation-filters="sRGB">
<feFlood flood-opacity="0" result="BackgroundImageFix"/>
<feBlend mode="normal" in="SourceGraphic" in2="BackgroundImageFix" result="shape"/>
<feColorMatrix in="SourceAlpha" type="matrix" values="0 0 0 0 0 0 0 0 0 0 0 0 0 0 0 0 0 0 127 0" result="hardAlpha"/>
<feOffset dy="1"/>
<feGaussianBlur stdDeviation="1"/>
<feComposite in2="hardAlpha" operator="arithmetic" k2="-1" k3="1"/>
<feColorMatrix type="matrix" values="0 0 0 0 0 0 0 0 0 0 0 0 0 0 0 0 0 0 0.25 0"/>
<feBlend mode="normal" in2="shape" result="effect1_innerShadow_493_57345"/>
<feColorMatrix in="SourceAlpha" type="matrix" values="0 0 0 0 0 0 0 0 0 0 0 0 0 0 0 0 0 0 127 0" result="hardAlpha"/>
<feOffset dy="-1"/>
<feComposite in2="hardAlpha" operator="arithmetic" k2="-1" k3="1"/>
<feColorMatrix type="matrix" values="0 0 0 0 1 0 0 0 0 1 0 0 0 0 1 0 0 0 0.06 0"/>
<feBlend mode="normal" in2="effect1_innerShadow_493_57345" result="effect2_innerShadow_493_57345"/>
</filter>
<filter id="filter2_ii_493_57345" x="111.001" y="16" width="24" height="21" filterUnits="userSpaceOnUse" color-interpolation-filters="sRGB">
<feFlood flood-opacity="0" result="BackgroundImageFix"/>
<feBlend mode="normal" in="SourceGraphic" in2="BackgroundImageFix" result="shape"/>
<feColorMatrix in="SourceAlpha" type="matrix" values="0 0 0 0 0 0 0 0 0 0 0 0 0 0 0 0 0 0 127 0" result="hardAlpha"/>
<feOffset dy="1"/>
<feGaussianBlur stdDeviation="1"/>
<feComposite in2="hardAlpha" operator="arithmetic" k2="-1" k3="1"/>
<feColorMatrix type="matrix" values="0 0 0 0 0 0 0 0 0 0 0 0 0 0 0 0 0 0 0.25 0"/>
<feBlend mode="normal" in2="shape" result="effect1_innerShadow_493_57345"/>
<feColorMatrix in="SourceAlpha" type="matrix" values="0 0 0 0 0 0 0 0 0 0 0 0 0 0 0 0 0 0 127 0" result="hardAlpha"/>
<feOffset dy="-1"/>
<feComposite in2="hardAlpha" operator="arithmetic" k2="-1" k3="1"/>
<feColorMatrix type="matrix" values="0 0 0 0 1 0 0 0 0 1 0 0 0 0 1 0 0 0 0.06 0"/>
<feBlend mode="normal" in2="effect1_innerShadow_493_57345" result="effect2_innerShadow_493_57345"/>
</filter>
<filter id="filter3_ii_493_57345" x="141.001" y="16" width="24" height="21" filterUnits="userSpaceOnUse" color-interpolation-filters="sRGB">
<feFlood flood-opacity="0" result="BackgroundImageFix"/>
<feBlend mode="normal" in="SourceGraphic" in2="BackgroundImageFix" result="shape"/>
<feColorMatrix in="SourceAlpha" type="matrix" values="0 0 0 0 0 0 0 0 0 0 0 0 0 0 0 0 0 0 127 0" result="hardAlpha"/>
<feOffset dy="1"/>
<feGaussianBlur stdDeviation="1"/>
<feComposite in2="hardAlpha" operator="arithmetic" k2="-1" k3="1"/>
<feColorMatrix type="matrix" values="0 0 0 0 0 0 0 0 0 0 0 0 0 0 0 0 0 0 0.25 0"/>
<feBlend mode="normal" in2="shape" result="effect1_innerShadow_493_57345"/>
<feColorMatrix in="SourceAlpha" type="matrix" values="0 0 0 0 0 0 0 0 0 0 0 0 0 0 0 0 0 0 127 0" result="hardAlpha"/>
<feOffset dy="-1"/>
<feComposite in2="hardAlpha" operator="arithmetic" k2="-1" k3="1"/>
<feColorMatrix type="matrix" values="0 0 0 0 1 0 0 0 0 1 0 0 0 0 1 0 0 0 0.06 0"/>
<feBlend mode="normal" in2="effect1_innerShadow_493_57345" result="effect2_innerShadow_493_57345"/>
</filter>
<filter id="filter4_ii_493_57345" x="171.001" y="16" width="24" height="21" filterUnits="userSpaceOnUse" color-interpolation-filters="sRGB">
<feFlood flood-opacity="0" result="BackgroundImageFix"/>
<feBlend mode="normal" in="SourceGraphic" in2="BackgroundImageFix" result="shape"/>
<feColorMatrix in="SourceAlpha" type="matrix" values="0 0 0 0 0 0 0 0 0 0 0 0 0 0 0 0 0 0 127 0" result="hardAlpha"/>
<feOffset dy="1"/>
<feGaussianBlur stdDeviation="1"/>
<feComposite in2="hardAlpha" operator="arithmetic" k2="-1" k3="1"/>
<feColorMatrix type="matrix" values="0 0 0 0 0 0 0 0 0 0 0 0 0 0 0 0 0 0 0.25 0"/>
<feBlend mode="normal" in2="shape" result="effect1_innerShadow_493_57345"/>
<feColorMatrix in="SourceAlpha" type="matrix" values="0 0 0 0 0 0 0 0 0 0 0 0 0 0 0 0 0 0 127 0" result="hardAlpha"/>
<feOffset dy="-1"/>
<feComposite in2="hardAlpha" operator="arithmetic" k2="-1" k3="1"/>
<feColorMatrix type="matrix" values="0 0 0 0 1 0 0 0 0 1 0 0 0 0 1 0 0 0 0.06 0"/>
<feBlend mode="normal" in2="effect1_innerShadow_493_57345" result="effect2_innerShadow_493_57345"/>
</filter>
<filter id="filter5_ddddd_493_57345" x="191.751" y="-2.31152" width="48.3594" height="95.1963" filterUnits="userSpaceOnUse" color-interpolation-filters="sRGB">
<feFlood flood-opacity="0" result="BackgroundImageFix"/>
<feColorMatrix in="SourceAlpha" type="matrix" values="0 0 0 0 0 0 0 0 0 0 0 0 0 0 0 0 0 0 127 0" result="hardAlpha"/>
<feOffset/>
<feGaussianBlur stdDeviation="0.373843"/>
<feColorMatrix type="matrix" values="0 0 0 0 1 0 0 0 0 0.988235 0 0 0 0 0.00392157 0 0 0 0.132407 0"/>
<feBlend mode="normal" in2="BackgroundImageFix" result="effect1_dropShadow_493_57345"/>
<feColorMatrix in="SourceAlpha" type="matrix" values="0 0 0 0 0 0 0 0 0 0 0 0 0 0 0 0 0 0 127 0" result="hardAlpha"/>
<feOffset/>
<feGaussianBlur stdDeviation="0.774074"/>
<feColorMatrix type="matrix" values="0 0 0 0 1 0 0 0 0 0.988235 0 0 0 0 0.00392157 0 0 0 0.215926 0"/>
<feBlend mode="normal" in2="effect1_dropShadow_493_57345" result="effect2_dropShadow_493_57345"/>
<feColorMatrix in="SourceAlpha" type="matrix" values="0 0 0 0 0 0 0 0 0 0 0 0 0 0 0 0 0 0 127 0" result="hardAlpha"/>
<feOffset/>
<feGaussianBlur stdDeviation="1.54375"/>
<feColorMatrix type="matrix" values="0 0 0 0 1 0 0 0 0 0.988235 0 0 0 0 0.00392157 0 0 0 0.275 0"/>
<feBlend mode="normal" in2="effect2_dropShadow_493_57345" result="effect3_dropShadow_493_57345"/>
<feColorMatrix in="SourceAlpha" type="matrix" values="0 0 0 0 0 0 0 0 0 0 0 0 0 0 0 0 0 0 127 0" result="hardAlpha"/>
<feOffset/>
<feGaussianBlur stdDeviation="3.02593"/>
<feColorMatrix type="matrix" values="0 0 0 0 1 0 0 0 0 0.988235 0 0 0 0 0.00392157 0 0 0 0.334074 0"/>
<feBlend mode="normal" in2="effect3_dropShadow_493_57345" result="effect4_dropShadow_493_57345"/>
<feColorMatrix in="SourceAlpha" type="matrix" values="0 0 0 0 0 0 0 0 0 0 0 0 0 0 0 0 0 0 127 0" result="hardAlpha"/>
<feOffset/>
<feGaussianBlur stdDeviation="9.5"/>
<feColorMatrix type="matrix" values="0 0 0 0 1 0 0 0 0 0.988235 0 0 0 0 0.00392157 0 0 0 0.55 0"/>
<feBlend mode="normal" in2="effect4_dropShadow_493_57345" result="effect5_dropShadow_493_57345"/>
<feBlend mode="normal" in="SourceGraphic" in2="effect5_dropShadow_493_57345" result="shape"/>
</filter>
<clipPath id="clip0_493_57345">
<rect width="240" height="327.522" fill="white" transform="translate(0 0.000366211)"/>
</clipPath>
</defs>
</svg>
