<svg width="360" height="10" viewBox="0 0 360 10" fill="none" xmlns="http://www.w3.org/2000/svg">
<path d="M142 6V0H105.817C104.082 0 102.431 0.745085 101.282 2.0459V2.0459C100.134 3.34672 98.4822 4.0918 96.747 4.0918H24.1092C22.7869 4.0918 21.5283 3.52403 20.6533 2.53279V2.53279C19.7782 1.54154 18.5196 0.97377 17.1974 0.97377H5.02623C2.25032 0.97377 0 3.22409 0 6V6H142Z" fill="#7CFEB8"/>
<path d="M349.204 0H142V6H349.204H360L353.74 0.899104C353.026 0.317561 352.134 0 351.213 0H349.204Z" fill="#7CFEB8"/>
<g clip-path="url(#clip0_712_256798)">
<path d="M244 6H276V10H248C245.791 10 244 8.20914 244 6V6Z" fill="#7CFEB8"/>
<rect x="276" y="4" width="2" height="6" fill="#0C1214"/>
<path d="M278 6V9.97388H294.54C296.071 9.97388 297.552 9.42904 298.718 8.43689V8.43689C299.884 7.44473 301.365 6.89989 302.896 6.89989H325.898C327.216 6.89989 328.471 7.46407 329.347 8.44995V8.44995C330.222 9.43583 331.478 10 332.796 10H350V6H278Z" fill="#7CFEB8"/>
<path d="M350 10H356C358.209 10 360 8.20914 360 6V6H350V10Z" fill="#7CFEB8"/>
</g>
<defs>
<clipPath id="clip0_712_256798">
<rect width="116" height="4" fill="white" transform="matrix(1 0 0 -1 244 10)"/>
</clipPath>
</defs>
</svg>
