<svg width="240" height="328" viewBox="0 0 240 328" fill="none" xmlns="http://www.w3.org/2000/svg">
<path d="M55.3204 319.094C54.7906 318.439 55.2559 317.462 56.0973 317.462H57.0642C57.3656 317.462 57.6509 317.598 57.8407 317.833L63.6675 325.023C64.1979 325.678 63.7327 326.656 62.891 326.656H61.9162C61.6147 326.656 61.3292 326.52 61.1393 326.285L55.3204 319.094Z" fill="#0C1214"/>
<path d="M48.3299 319.094C47.8001 318.439 48.2653 317.462 49.1068 317.462H50.0737C50.3751 317.462 50.6603 317.598 50.8502 317.833L56.6769 325.023C57.2073 325.678 56.7422 326.656 55.9004 326.656H54.9257C54.6241 326.656 54.3387 326.52 54.1488 326.285L48.3299 319.094Z" fill="#0C1214"/>
<path d="M41.3393 319.094C40.8096 318.439 41.2748 317.462 42.1163 317.462H43.0928C43.3943 317.462 43.6798 317.598 43.8697 317.833L49.6886 325.024C50.2184 325.679 49.7531 326.656 48.9117 326.656H47.9352C47.6336 326.656 47.3482 326.52 47.1583 326.285L41.3393 319.094Z" fill="#0C1214"/>
<path d="M34.3709 319.095C33.8405 318.44 34.3057 317.462 35.1474 317.462H36.1022C36.4038 317.462 36.6893 317.598 36.8791 317.833L42.6981 325.024C43.2279 325.679 42.7626 326.656 41.9212 326.656H40.9741C40.6728 326.656 40.3875 326.52 40.1976 326.285L34.3709 319.095Z" fill="#0C1214"/>
<path d="M27.3704 319.095C26.84 318.44 27.3052 317.462 28.1469 317.462H29.1221C29.4234 317.462 29.7087 317.598 29.8986 317.833L35.7253 325.023C36.2557 325.678 35.7905 326.656 34.9488 326.656H33.9736C33.6723 326.656 33.387 326.52 33.1971 326.285L27.3704 319.095Z" fill="#0C1214"/>
<path d="M26.9177 326.475C27.7565 326.475 28.2225 325.503 27.6981 324.848L24.1232 320.379C23.7393 319.899 23.0183 319.875 22.6043 320.329L18.529 324.799C17.9429 325.441 18.3983 326.475 19.2675 326.475H26.9177Z" fill="#0C1214"/>
<path d="M6 288.42C6 286.208 7.79086 284.414 10 284.414V298.435C7.79086 298.435 6 296.641 6 294.429V288.42Z" fill="#7CE0FE"/>
<path fill-rule="evenodd" clip-rule="evenodd" d="M240 271.395V58.0846V56.0816L233.002 50.4754C231.105 48.9551 230 46.6532 230 44.2194V27.8856C230 25.4518 231.105 23.1499 233.002 21.6295L240 16.0233V8.01166C240 3.58694 236.418 0 232 0H8C3.58172 0 0 3.58695 0 8.01167V58.0846V271.395L6.99756 277.001C8.89528 278.522 10 280.824 10 283.257L10 284.414V298.435L10 299.591C10 302.025 8.89528 304.327 6.99756 305.847L0 311.453V327.978L0.00347493 327.975C0.00205424 327.979 0.00242704 327.984 0.00471191 327.989C0.00805503 327.996 0.0149075 328 0.0224054 328H6.43296C9.42351 328 12.2686 326.708 14.2386 324.454L19.8309 318.058C22.1095 315.452 25.4003 313.957 28.8592 313.957H53.3161C56.8616 313.957 60.2257 315.527 62.5057 318.246L66.229 322.687C68.5091 325.406 71.8731 326.976 75.4186 326.976H220.999L229.499 326.976C235.133 326.976 239.73 322.533 239.988 316.955L240 316.961V271.395ZM229.368 318.433C228.432 317.485 228.433 315.958 229.371 315.012C230.897 313.472 233.52 314.554 233.52 316.724C233.52 318.896 230.892 319.977 229.368 318.433ZM75.5 311.954C74.6716 311.954 74 312.627 74 313.456V319.465C74 320.295 74.6716 320.967 75.5 320.967C76.3284 320.967 77 320.295 77 319.465V313.456C77 312.627 76.3284 311.954 75.5 311.954ZM81 313.456C81 312.627 81.6716 311.954 82.5 311.954C83.3284 311.954 84 312.627 84 313.456V319.465C84 320.295 83.3284 320.967 82.5 320.967C81.6716 320.967 81 320.295 81 319.465V313.456ZM89.5 311.954C88.6716 311.954 88 312.627 88 313.456V319.465C88 320.295 88.6716 320.967 89.5 320.967C90.3284 320.967 91 320.295 91 319.465V313.456C91 312.627 90.3284 311.954 89.5 311.954ZM95 313.456C95 312.627 95.6716 311.954 96.5 311.954C97.3284 311.954 98 312.627 98 313.456V319.465C98 320.295 97.3284 320.967 96.5 320.967C95.6716 320.967 95 320.295 95 319.465V313.456ZM103.5 311.954C102.672 311.954 102 312.627 102 313.456V319.465C102 320.295 102.672 320.967 103.5 320.967C104.328 320.967 105 320.295 105 319.465V313.456C105 312.627 104.328 311.954 103.5 311.954ZM109 313.456C109 312.627 109.672 311.954 110.5 311.954C111.328 311.954 112 312.627 112 313.456V319.465C112 320.295 111.328 320.967 110.5 320.967C109.672 320.967 109 320.295 109 319.465V313.456ZM117.5 311.954C116.672 311.954 116 312.627 116 313.456V319.465C116 320.295 116.672 320.967 117.5 320.967C118.328 320.967 119 320.295 119 319.465V313.456C119 312.627 118.328 311.954 117.5 311.954ZM123 313.456C123 312.627 123.672 311.954 124.5 311.954C125.328 311.954 126 312.627 126 313.456V319.465C126 320.295 125.328 320.967 124.5 320.967C123.672 320.967 123 320.295 123 319.465V313.456ZM131.5 311.954C130.672 311.954 130 312.627 130 313.456V319.465C130 320.295 130.672 320.967 131.5 320.967C132.328 320.967 133 320.295 133 319.465V313.456C133 312.627 132.328 311.954 131.5 311.954ZM137 313.456C137 312.627 137.672 311.954 138.5 311.954C139.328 311.954 140 312.627 140 313.456V319.465C140 320.295 139.328 320.967 138.5 320.967C137.672 320.967 137 320.295 137 319.465V313.456ZM145.5 311.954C144.672 311.954 144 312.627 144 313.456V319.465C144 320.295 144.672 320.967 145.5 320.967C146.328 320.967 147 320.295 147 319.465V313.456C147 312.627 146.328 311.954 145.5 311.954ZM151 313.456C151 312.627 151.672 311.954 152.5 311.954C153.328 311.954 154 312.627 154 313.456V319.465C154 320.295 153.328 320.967 152.5 320.967C151.672 320.967 151 320.295 151 319.465V313.456ZM159.5 311.954C158.672 311.954 158 312.627 158 313.456V319.465C158 320.295 158.672 320.967 159.5 320.967C160.328 320.967 161 320.295 161 319.465V313.456C161 312.627 160.328 311.954 159.5 311.954ZM165 313.456C165 312.627 165.672 311.954 166.5 311.954C167.328 311.954 168 312.627 168 313.456V319.465C168 320.295 167.328 320.967 166.5 320.967C165.672 320.967 165 320.295 165 319.465V313.456ZM173.5 311.954C172.672 311.954 172 312.627 172 313.456V319.465C172 320.295 172.672 320.967 173.5 320.967C174.328 320.967 175 320.295 175 319.465V313.456C175 312.627 174.328 311.954 173.5 311.954ZM179 313.456C179 312.627 179.672 311.954 180.5 311.954C181.328 311.954 182 312.627 182 313.456V319.465C182 320.295 181.328 320.967 180.5 320.967C179.672 320.967 179 320.295 179 319.465V313.456ZM187.5 311.954C186.672 311.954 186 312.627 186 313.456V319.465C186 320.295 186.672 320.967 187.5 320.967C188.328 320.967 189 320.295 189 319.465V313.456C189 312.627 188.328 311.954 187.5 311.954ZM193 313.456C193 312.627 193.672 311.954 194.5 311.954C195.328 311.954 196 312.627 196 313.456V319.465C196 320.295 195.328 320.967 194.5 320.967C193.672 320.967 193 320.295 193 319.465V313.456ZM201.5 311.954C200.672 311.954 200 312.627 200 313.456V319.465C200 320.295 200.672 320.967 201.5 320.967C202.328 320.967 203 320.295 203 319.465V313.456C203 312.627 202.328 311.954 201.5 311.954ZM207 313.456C207 312.627 207.672 311.954 208.5 311.954C209.328 311.954 210 312.627 210 313.456V319.465C210 320.295 209.328 320.967 208.5 320.967C207.672 320.967 207 320.295 207 319.465V313.456Z" fill="#0C1214"/>
<path d="M74 313.456C74 312.627 74.6716 311.954 75.5 311.954C76.3284 311.954 77 312.627 77 313.456V319.465C77 320.295 76.3284 320.967 75.5 320.967C74.6716 320.967 74 320.295 74 319.465V313.456Z" fill="#040406"/>
<path d="M82.5 311.954C81.6716 311.954 81 312.627 81 313.456V319.465C81 320.295 81.6716 320.967 82.5 320.967C83.3284 320.967 84 320.295 84 319.465V313.456C84 312.627 83.3284 311.954 82.5 311.954Z" fill="#040406"/>
<path d="M88 313.456C88 312.627 88.6716 311.954 89.5 311.954C90.3284 311.954 91 312.627 91 313.456V319.465C91 320.295 90.3284 320.967 89.5 320.967C88.6716 320.967 88 320.295 88 319.465V313.456Z" fill="#040406"/>
<path d="M96.5 311.954C95.6716 311.954 95 312.627 95 313.456V319.465C95 320.295 95.6716 320.967 96.5 320.967C97.3284 320.967 98 320.295 98 319.465V313.456C98 312.627 97.3284 311.954 96.5 311.954Z" fill="#040406"/>
<path d="M102 313.456C102 312.627 102.672 311.954 103.5 311.954C104.328 311.954 105 312.627 105 313.456V319.465C105 320.295 104.328 320.967 103.5 320.967C102.672 320.967 102 320.295 102 319.465V313.456Z" fill="#040406"/>
<path d="M110.5 311.954C109.672 311.954 109 312.627 109 313.456V319.465C109 320.295 109.672 320.967 110.5 320.967C111.328 320.967 112 320.295 112 319.465V313.456C112 312.627 111.328 311.954 110.5 311.954Z" fill="#040406"/>
<path d="M116 313.456C116 312.627 116.672 311.954 117.5 311.954C118.328 311.954 119 312.627 119 313.456V319.465C119 320.295 118.328 320.967 117.5 320.967C116.672 320.967 116 320.295 116 319.465V313.456Z" fill="#040406"/>
<path d="M124.5 311.954C123.672 311.954 123 312.627 123 313.456V319.465C123 320.295 123.672 320.967 124.5 320.967C125.328 320.967 126 320.295 126 319.465V313.456C126 312.627 125.328 311.954 124.5 311.954Z" fill="#040406"/>
<path d="M130 313.456C130 312.627 130.672 311.954 131.5 311.954C132.328 311.954 133 312.627 133 313.456V319.465C133 320.295 132.328 320.967 131.5 320.967C130.672 320.967 130 320.295 130 319.465V313.456Z" fill="#040406"/>
<path d="M138.5 311.954C137.672 311.954 137 312.627 137 313.456V319.465C137 320.295 137.672 320.967 138.5 320.967C139.328 320.967 140 320.295 140 319.465V313.456C140 312.627 139.328 311.954 138.5 311.954Z" fill="#040406"/>
<path d="M144 313.456C144 312.627 144.672 311.954 145.5 311.954C146.328 311.954 147 312.627 147 313.456V319.465C147 320.295 146.328 320.967 145.5 320.967C144.672 320.967 144 320.295 144 319.465V313.456Z" fill="#040406"/>
<path d="M152.5 311.954C151.672 311.954 151 312.627 151 313.456V319.465C151 320.295 151.672 320.967 152.5 320.967C153.328 320.967 154 320.295 154 319.465V313.456C154 312.627 153.328 311.954 152.5 311.954Z" fill="#040406"/>
<path d="M158 313.456C158 312.627 158.672 311.954 159.5 311.954C160.328 311.954 161 312.627 161 313.456V319.465C161 320.295 160.328 320.967 159.5 320.967C158.672 320.967 158 320.295 158 319.465V313.456Z" fill="#040406"/>
<path d="M166.5 311.954C165.672 311.954 165 312.627 165 313.456V319.465C165 320.295 165.672 320.967 166.5 320.967C167.328 320.967 168 320.295 168 319.465V313.456C168 312.627 167.328 311.954 166.5 311.954Z" fill="#040406"/>
<path d="M172 313.456C172 312.627 172.672 311.954 173.5 311.954C174.328 311.954 175 312.627 175 313.456V319.465C175 320.295 174.328 320.967 173.5 320.967C172.672 320.967 172 320.295 172 319.465V313.456Z" fill="#040406"/>
<path d="M180.5 311.954C179.672 311.954 179 312.627 179 313.456V319.465C179 320.295 179.672 320.967 180.5 320.967C181.328 320.967 182 320.295 182 319.465V313.456C182 312.627 181.328 311.954 180.5 311.954Z" fill="#040406"/>
<path d="M186 313.456C186 312.627 186.672 311.954 187.5 311.954C188.328 311.954 189 312.627 189 313.456V319.465C189 320.295 188.328 320.967 187.5 320.967C186.672 320.967 186 320.295 186 319.465V313.456Z" fill="#040406"/>
<path d="M200 313.456C200 312.627 200.672 311.954 201.5 311.954C202.328 311.954 203 312.627 203 313.456V319.465C203 320.295 202.328 320.967 201.5 320.967C200.672 320.967 200 320.295 200 319.465V313.456Z" fill="#040406"/>
<path d="M194.5 311.954C193.672 311.954 193 312.627 193 313.456V319.465C193 320.295 193.672 320.967 194.5 320.967C195.328 320.967 196 320.295 196 319.465V313.456C196 312.627 195.328 311.954 194.5 311.954Z" fill="#040406"/>
<path d="M208.5 311.954C207.672 311.954 207 312.627 207 313.456V319.465C207 320.295 207.672 320.967 208.5 320.967C209.328 320.967 210 320.295 210 319.465V313.456C210 312.627 209.328 311.954 208.5 311.954Z" fill="#040406"/>
<path d="M229.371 315.012C228.433 315.958 228.432 317.485 229.368 318.433C230.892 319.977 233.52 318.896 233.52 316.724C233.52 314.554 230.897 313.472 229.371 315.012Z" fill="#040406"/>
<g clip-path="url(#clip0_700_119975)">
<mask id="mask0_700_119975" style="mask-type:alpha" maskUnits="userSpaceOnUse" x="0" y="0" width="240" height="328">
<path d="M0 58.0846H240V271.395H0V58.0846Z" fill="#141E21"/>
<path fill-rule="evenodd" clip-rule="evenodd" d="M240 271.395H0L6.99756 277.001C8.89528 278.522 10 280.824 10 283.257V299.591C10 302.025 8.89528 304.327 6.99756 305.847L0 311.453V327.978L0.00347493 327.975C0.00205424 327.979 0.00242704 327.984 0.00471191 327.989C0.00805503 327.996 0.0149075 328 0.0224054 328H6.43296C9.42351 328 12.2686 326.708 14.2386 324.454L19.8309 318.058C22.1095 315.452 25.4003 313.957 28.8592 313.957H53.3161C56.8616 313.957 60.2257 315.527 62.5057 318.246L66.229 322.687C68.5091 325.406 71.8731 326.976 75.4186 326.976H220.999L215.5 326.976L229.499 326.976C235.133 326.976 239.73 322.533 239.988 316.955L240 316.961V271.395ZM229.371 315.012C228.433 315.958 228.432 317.485 229.368 318.433C230.892 319.977 233.52 318.896 233.52 316.724C233.52 314.554 230.897 313.472 229.371 315.012ZM74 313.456C74 312.627 74.6716 311.954 75.5 311.954C76.3284 311.954 77 312.627 77 313.456V319.465C77 320.295 76.3284 320.967 75.5 320.967C74.6716 320.967 74 320.295 74 319.465V313.456ZM82.5 311.954C81.6716 311.954 81 312.627 81 313.456V319.465C81 320.295 81.6716 320.967 82.5 320.967C83.3284 320.967 84 320.295 84 319.465V313.456C84 312.627 83.3284 311.954 82.5 311.954ZM88 313.456C88 312.627 88.6716 311.954 89.5 311.954C90.3284 311.954 91 312.627 91 313.456V319.465C91 320.295 90.3284 320.967 89.5 320.967C88.6716 320.967 88 320.295 88 319.465V313.456ZM96.5 311.954C95.6716 311.954 95 312.627 95 313.456V319.465C95 320.295 95.6716 320.967 96.5 320.967C97.3284 320.967 98 320.295 98 319.465V313.456C98 312.627 97.3284 311.954 96.5 311.954ZM102 313.456C102 312.627 102.672 311.954 103.5 311.954C104.328 311.954 105 312.627 105 313.456V319.465C105 320.295 104.328 320.967 103.5 320.967C102.672 320.967 102 320.295 102 319.465V313.456ZM110.5 311.954C109.672 311.954 109 312.627 109 313.456V319.465C109 320.295 109.672 320.967 110.5 320.967C111.328 320.967 112 320.295 112 319.465V313.456C112 312.627 111.328 311.954 110.5 311.954ZM116 313.456C116 312.627 116.672 311.954 117.5 311.954C118.328 311.954 119 312.627 119 313.456V319.465C119 320.295 118.328 320.967 117.5 320.967C116.672 320.967 116 320.295 116 319.465V313.456ZM124.5 311.954C123.672 311.954 123 312.627 123 313.456V319.465C123 320.295 123.672 320.967 124.5 320.967C125.328 320.967 126 320.295 126 319.465V313.456C126 312.627 125.328 311.954 124.5 311.954ZM130 313.456C130 312.627 130.672 311.954 131.5 311.954C132.328 311.954 133 312.627 133 313.456V319.465C133 320.295 132.328 320.967 131.5 320.967C130.672 320.967 130 320.295 130 319.465V313.456ZM138.5 311.954C137.672 311.954 137 312.627 137 313.456V319.465C137 320.295 137.672 320.967 138.5 320.967C139.328 320.967 140 320.295 140 319.465V313.456C140 312.627 139.328 311.954 138.5 311.954ZM144 313.456C144 312.627 144.672 311.954 145.5 311.954C146.328 311.954 147 312.627 147 313.456V319.465C147 320.295 146.328 320.967 145.5 320.967C144.672 320.967 144 320.295 144 319.465V313.456ZM152.5 311.954C151.672 311.954 151 312.627 151 313.456V319.465C151 320.295 151.672 320.967 152.5 320.967C153.328 320.967 154 320.295 154 319.465V313.456C154 312.627 153.328 311.954 152.5 311.954ZM158 313.456C158 312.627 158.672 311.954 159.5 311.954C160.328 311.954 161 312.627 161 313.456V319.465C161 320.295 160.328 320.967 159.5 320.967C158.672 320.967 158 320.295 158 319.465V313.456ZM166.5 311.954C165.672 311.954 165 312.627 165 313.456V319.465C165 320.295 165.672 320.967 166.5 320.967C167.328 320.967 168 320.295 168 319.465V313.456C168 312.627 167.328 311.954 166.5 311.954ZM172 313.456C172 312.627 172.672 311.954 173.5 311.954C174.328 311.954 175 312.627 175 313.456V319.465C175 320.295 174.328 320.967 173.5 320.967C172.672 320.967 172 320.295 172 319.465V313.456ZM180.5 311.954C179.672 311.954 179 312.627 179 313.456V319.465C179 320.295 179.672 320.967 180.5 320.967C181.328 320.967 182 320.295 182 319.465V313.456C182 312.627 181.328 311.954 180.5 311.954ZM186 313.456C186 312.627 186.672 311.954 187.5 311.954C188.328 311.954 189 312.627 189 313.456V319.465C189 320.295 188.328 320.967 187.5 320.967C186.672 320.967 186 320.295 186 319.465V313.456ZM194.5 311.954C193.672 311.954 193 312.627 193 313.456V319.465C193 320.295 193.672 320.967 194.5 320.967C195.328 320.967 196 320.295 196 319.465V313.456C196 312.627 195.328 311.954 194.5 311.954ZM200 313.456C200 312.627 200.672 311.954 201.5 311.954C202.328 311.954 203 312.627 203 313.456V319.465C203 320.295 202.328 320.967 201.5 320.967C200.672 320.967 200 320.295 200 319.465V313.456ZM208.5 311.954C207.672 311.954 207 312.627 207 313.456V319.465C207 320.295 207.672 320.967 208.5 320.967C209.328 320.967 210 320.295 210 319.465V313.456C210 312.627 209.328 311.954 208.5 311.954Z" fill="#141E21"/>
<path d="M55.3204 319.094C54.7906 318.439 55.2559 317.462 56.0973 317.462H57.0642C57.3656 317.462 57.6509 317.598 57.8407 317.833L63.6675 325.023C64.1979 325.678 63.7327 326.656 62.891 326.656H61.9162C61.6147 326.656 61.3292 326.52 61.1393 326.285L55.3204 319.094Z" fill="#141E21"/>
<path d="M48.3299 319.094C47.8001 318.439 48.2653 317.462 49.1068 317.462H50.0737C50.3751 317.462 50.6603 317.598 50.8502 317.833L56.6769 325.023C57.2073 325.678 56.7422 326.656 55.9004 326.656H54.9257C54.6241 326.656 54.3387 326.52 54.1488 326.285L48.3299 319.094Z" fill="#141E21"/>
<path d="M41.3393 319.094C40.8096 318.439 41.2748 317.462 42.1163 317.462H43.0928C43.3943 317.462 43.6798 317.598 43.8697 317.833L49.6886 325.024C50.2184 325.679 49.7531 326.656 48.9117 326.656H47.9352C47.6336 326.656 47.3482 326.52 47.1583 326.285L41.3393 319.094Z" fill="#141E21"/>
<path d="M34.3709 319.095C33.8405 318.44 34.3057 317.462 35.1474 317.462H36.1022C36.4038 317.462 36.6893 317.598 36.8791 317.833L42.6981 325.024C43.2279 325.679 42.7626 326.656 41.9212 326.656H40.9741C40.6728 326.656 40.3875 326.52 40.1976 326.285L34.3709 319.095Z" fill="#141E21"/>
<path d="M27.3704 319.095C26.84 318.44 27.3052 317.462 28.1469 317.462H29.1221C29.4234 317.462 29.7087 317.598 29.8986 317.833L35.7253 325.023C36.2557 325.678 35.7905 326.656 34.9488 326.656H33.9736C33.6723 326.656 33.387 326.52 33.1971 326.285L27.3704 319.095Z" fill="#141E21"/>
<path d="M26.9177 326.475C27.7565 326.475 28.2225 325.503 27.6981 324.848L24.1232 320.379C23.7393 319.899 23.0183 319.875 22.6043 320.329L18.529 324.799C17.9429 325.441 18.3983 326.475 19.2675 326.475H26.9177Z" fill="#141E21"/>
<path d="M240 0H0V58.0846H240V56.0817L233.002 50.4754C231.105 48.955 230 46.6532 230 44.2194V27.8856C230 25.4518 231.105 23.1499 233.002 21.6295L240 16.0233V0Z" fill="#141E21"/>
</mask>
<g mask="url(#mask0_700_119975)">
<path d="M21 288L21 285L18 285L18 288L21 288Z" fill="#141E21"/>
<path d="M31 288L31 285L28 285L28 288L31 288Z" fill="#141E21"/>
<path d="M31 293L31 290L28 290L28 293L31 293Z" fill="#141E21"/>
<path d="M36 293L36 290L33 290L33 293L36 293Z" fill="#141E21"/>
<path d="M41 288L41 285L38 285L38 288L41 288Z" fill="#141E21"/>
<path d="M46 288L46 285L43 285L43 288L46 288Z" fill="#141E21"/>
<path d="M55 283L55 280L52 280L52 283L55 283Z" fill="#141E21"/>
<path d="M64 298L64 295L61 295L61 298L64 298Z" fill="#141E21"/>
<path d="M74 288L74 285L71 285L71 288L74 288Z" fill="#141E21"/>
<path d="M84 288L84 285L81 285L81 288L84 288Z" fill="#141E21"/>
<path d="M159 288L159 285L156 285L156 288L159 288Z" fill="#141E21"/>
<path d="M173 288L173 285L170 285L170 288L173 288Z" fill="#141E21"/>
<path d="M183 293L183 290L180 290L180 293L183 293Z" fill="#141E21"/>
<path d="M188 288L188 285L185 285L185 288L188 288Z" fill="#141E21"/>
<path d="M193 288L193 285L190 285L190 288L193 288Z" fill="#141E21"/>
<path d="M208 283L208 280L205 280L205 283L208 283Z" fill="#141E21"/>
<path d="M215 298L215 295L212 295L212 298L215 298Z" fill="#141E21"/>
<path d="M225 293L225 290L222 290L222 293L225 293Z" fill="#141E21"/>
<path d="M239 227L239 224L236 224L236 227L239 227Z" fill="#141E21"/>
<path d="M239 260L239 257L236 257L236 260L239 260Z" fill="#141E21"/>
<path d="M239 278L239 275L236 275L236 278L239 278Z" fill="#141E21"/>
<path d="M130 26L130 23L127 23L127 26L130 26Z" fill="#141E21"/>
<path d="M130 31L130 28L127 28L127 31L130 31Z" fill="#141E21"/>
<path d="M130 36L130 33L127 33L127 36L130 36Z" fill="#141E21"/>
<path d="M161 23L161 20L158 20L158 23L161 23Z" fill="#141E21"/>
<path d="M161 43L161 40L158 40L158 43L161 43Z" fill="#141E21"/>
<path d="M161 53L161 50L158 50L158 53L161 53Z" fill="#141E21"/>
<path d="M135 46L135 43L132 43L132 46L135 46Z" fill="#141E21"/>
<g filter="url(#filter0_dd_700_119975)">
<path d="M3 179L3 176L0 176L-1.31134e-07 179L3 179Z" fill="#7CE0FE"/>
<path d="M3 184L3 181L0 181L-1.31134e-07 184L3 184Z" fill="#7CE0FE"/>
<path d="M3 202L3 199L0 199L-1.31134e-07 202L3 202Z" fill="#0C1214"/>
<path d="M3 207L3 204L0 204L-1.31134e-07 207L3 207Z" fill="#7CE0FE"/>
<path d="M3 212L3 209L0 209L-1.31134e-07 212L3 212Z" fill="#0C1214"/>
<path d="M3 217L3 214L0 214L-1.31134e-07 217L3 217Z" fill="#7CE0FE"/>
<path d="M3 226L3 223L0 223L-1.31134e-07 226L3 226Z" fill="#7CE0FE"/>
<path d="M3 231L3 228L0 228L-1.31134e-07 231L3 231Z" fill="#0C1214"/>
<path d="M3 240L3 237L0 237L-1.31134e-07 240L3 240Z" fill="#7CE0FE"/>
<path d="M3 254L3 251L0 251L-1.31134e-07 254L3 254Z" fill="#7CE0FE"/>
<path d="M3 259L3 256L0 256L-1.31134e-07 259L3 259Z" fill="#0C1214"/>
<path d="M3 264L3 261L0 261L-1.31134e-07 264L3 264Z" fill="#7CE0FE"/>
<path d="M4 108L4 105L1 105L1 108L4 108Z" fill="#7CE0FE"/>
<path d="M4 113L4 110L1 110L1 113L4 113Z" fill="#7CE0FE"/>
<path d="M21 293L21 290L18 290L18 293L21 293Z" fill="#7CE0FE"/>
<path d="M26 298L26 295L23 295L23 298L26 298Z" fill="#7CE0FE"/>
<path d="M41 298L41 295L38 295L38 298L41 298Z" fill="#7CE0FE"/>
<path d="M46 283L46 280L43 280L43 283L46 283Z" fill="#7CE0FE"/>
<path d="M46 293L46 290L43 290L43 293L46 293Z" fill="#7CE0FE"/>
<path d="M55 288L55 285L52 285L52 288L55 288Z" fill="#7CE0FE"/>
<path d="M64 283L64 280L61 280L61 283L64 283Z" fill="#7CE0FE"/>
<path d="M74 283L74 280L71 280L71 283L74 283Z" fill="#7CE0FE"/>
<path d="M84 298L84 295L81 295L81 298L84 298Z" fill="#7CE0FE"/>
<path d="M159 297L159 294L156 294L156 297L159 297Z" fill="#7CE0FE"/>
<path d="M169 283L169 280L166 280L166 283L169 283Z" fill="#7CE0FE"/>
<path d="M168 293L168 290L165 290L165 293L168 293Z" fill="#7CE0FE"/>
<path d="M183 283L183 280L180 280L180 283L183 283Z" fill="#7CE0FE"/>
<path d="M197 298L197 295L194 295L194 298L197 298Z" fill="#7CE0FE"/>
<path d="M203 283L203 280L200 280L200 283L203 283Z" fill="#7CE0FE"/>
<path d="M203 293L203 290L200 290L200 293L203 293Z" fill="#7CE0FE"/>
<path d="M208 298L208 295L205 295L205 298L208 298Z" fill="#7CE0FE"/>
<path d="M215 283L215 280L212 280L212 283L215 283Z" fill="#7CE0FE"/>
<path d="M220 293L220 290L217 290L217 293L220 293Z" fill="#7CE0FE"/>
<path d="M225 283L225 280L222 280L222 283L225 283Z" fill="#7CE0FE"/>
<path d="M239 84L239 81L236 81L236 84L239 84Z" fill="#7CE0FE"/>
<path d="M239 93L239 90L236 90L236 93L239 93Z" fill="#7CE0FE"/>
<path d="M230 283L230 280L227 280L227 283L230 283Z" fill="#0C1214"/>
<path d="M230 288L230 285L227 285L227 288L230 288Z" fill="#7CE0FE"/>
<path d="M235 288L235 285L232 285L232 288L235 288Z" fill="#7CE0FE"/>
<path d="M239 222L239 219L236 219L236 222L239 222Z" fill="#7CE0FE"/>
<path d="M239 236L239 233L236 233L236 236L239 236Z" fill="#7CE0FE"/>
<path d="M239 245L239 242L236 242L236 245L239 245Z" fill="#7CE0FE"/>
<path d="M239 265L239 262L236 262L236 265L239 265Z" fill="#7CE0FE"/>
<path d="M239 273L239 270L236 270L236 273L239 273Z" fill="#7CE0FE"/>
<path d="M239 283L239 280L236 280L236 283L239 283Z" fill="#7CE0FE"/>
<path d="M239 293L239 290L236 290L236 293L239 293Z" fill="#7CE0FE"/>
<path d="M130 21L130 18L127 18L127 21L130 21Z" fill="#7CE0FE"/>
<path d="M130 41L130 38L127 38L127 41L130 41Z" fill="#7CE0FE"/>
<path d="M161 14L161 11L158 11L158 14L161 14Z" fill="#7CE0FE"/>
<path d="M161 28L161 25L158 25L158 28L161 28Z" fill="#7CE0FE"/>
<path d="M161 37L161 34L158 34L158 37L161 37Z" fill="#7CE0FE"/>
<path d="M161 48L161 45L158 45L158 48L161 48Z" fill="#7CE0FE"/>
<path d="M135 27L135 24L132 24L132 27L135 27Z" fill="#7CE0FE"/>
<path d="M135 41L135 38L132 38L132 41L135 41Z" fill="#7CE0FE"/>
<path d="M135 51L135 48L132 48L132 51L135 51Z" fill="#7CE0FE"/>
</g>
</g>
</g>
<path fill-rule="evenodd" clip-rule="evenodd" d="M101.769 0L6 0C2.68629 0 0 2.68629 0 6L106.638 6L101.769 0ZM109.903 6H113.638L108.769 0L105.32 0L109.677 5.36988C109.834 5.56292 109.904 5.78411 109.903 6ZM120.6 6H116.875C116.876 5.78432 116.807 5.56332 116.65 5.37039L112.298 0L115.738 0L120.6 6ZM123.866 6H127.591L122.728 0L119.289 0L123.641 5.37039C123.797 5.56332 123.867 5.78432 123.866 6ZM134.581 6H130.854C130.856 5.78411 130.786 5.56292 130.629 5.36988L126.271 0L129.719 0L134.581 6ZM137.845 6L240 6C240 2.68629 237.314 0 234 0L133.262 0L137.62 5.36988C137.776 5.56292 137.846 5.78411 137.845 6Z" fill="#1E3037"/>
<path d="M0 6L94.5319 6V37.6863C94.5319 39.808 93.6891 41.8429 92.1888 43.3431L87.8751 47.6569C86.3748 49.1571 84.3399 50 82.2182 50L22.8137 50C20.692 50 18.6571 49.1571 17.1569 47.6569L11.9262 42.4262C10.99 41.49 10.3009 40.3362 9.92043 39.0681L0 6Z" fill="#1E3037"/>
<defs>
<filter id="filter0_dd_700_119975" x="-28.3" y="-106.996" width="316" height="407.996" filterUnits="userSpaceOnUse" color-interpolation-filters="sRGB">
<feFlood flood-opacity="0" result="BackgroundImageFix"/>
<feColorMatrix in="SourceAlpha" type="matrix" values="0 0 0 0 0 0 0 0 0 0 0 0 0 0 0 0 0 0 127 0" result="hardAlpha"/>
<feOffset dy="-7"/>
<feGaussianBlur stdDeviation="5"/>
<feColorMatrix type="matrix" values="0 0 0 0 0.203922 0 0 0 0 0.784314 0 0 0 0 0.992157 0 0 0 0.36 0"/>
<feBlend mode="normal" in2="BackgroundImageFix" result="effect1_dropShadow_700_119975"/>
<feColorMatrix in="SourceAlpha" type="matrix" values="0 0 0 0 0 0 0 0 0 0 0 0 0 0 0 0 0 0 127 0" result="hardAlpha"/>
<feOffset dx="0.7" dy="-59.996"/>
<feGaussianBlur stdDeviation="14.5"/>
<feColorMatrix type="matrix" values="0 0 0 0 0.203922 0 0 0 0 0.784314 0 0 0 0 0.992157 0 0 0 0.7 0"/>
<feBlend mode="normal" in2="effect1_dropShadow_700_119975" result="effect2_dropShadow_700_119975"/>
<feBlend mode="normal" in="SourceGraphic" in2="effect2_dropShadow_700_119975" result="shape"/>
</filter>
<clipPath id="clip0_700_119975">
<path d="M0 7.99999C0 3.58171 3.58172 0 8 0L232 0C236.418 0 240 3.58172 240 8V328H0L0 7.99999Z" fill="white"/>
</clipPath>
</defs>
</svg>
